<svg version="1.1" xmlns="http://www.w3.org/2000/svg" viewBox="0 0 433.5 287.3">
<g id="ilustracao">
		<path id="catedralInicio" d="M428.8,279.3H258.7v-6.7h5.1c2.6-4.8,34.8-65.9,51.1-97c1.2-2.3,1.8-7.4,1.8-7.5v-4.3h52.9v2.5c0.2,1,3.1,11.3,5.6,15.8
			c3.7,6.9,7.2,13.9,10.7,20.8c1.5,3.1,3.2,6.3,4.8,9.4c1.5,3,3.2,6.1,4.8,9.2c2.5,4.6,4.9,9.2,7.2,13.9c1.4,2.9,2.9,5.7,4.3,8.5
			c1.9,3.7,3.9,7.5,5.7,11.4c2.8,6.1,8.9,15.8,10,17.5h6.1L428.8,279.3L428.8,279.3z M259.9,278.2h167.8v-4.5h-5.6l-0.1-0.2
			c-0.1-0.1-7.2-11-10.3-17.8c-1.8-3.9-3.7-7.7-5.7-11.4c-1.4-2.8-2.9-5.7-4.3-8.5c-2.2-4.7-4.8-9.4-7.2-13.8c-1.5-3-3.2-6-4.8-9.2
			c-1.5-3.1-3.2-6.3-4.8-9.4c-3.5-6.8-7.1-13.9-10.7-20.8c-2.6-4.9-5.6-15.7-5.7-16.2v-0.1V165h-50.6v3.2c0,0.2-0.6,5.4-1.9,7.9
			c-17,32.2-50.9,96.7-51.2,97.3l-0.1,0.3H260L259.9,278.2L259.9,278.2z"/>
		<path d="M360,273.3h-32v-8.9h32V273.3z M329,272.1h29.8v-6.7H329V272.1z"/>
		<path d="M324.3,268.1h-32.4l13-36.8h23.3L324.3,268.1z M293.5,267h29.8l0.9-8.4h-27.8L293.5,267z M296.8,257.5h27.4l1-9.2H300
			L296.8,257.5z M300.5,247.3h25l0.9-7.6h-23.1L300.5,247.3z M303.7,238.6h22.7l0.7-6.1h-21.3L303.7,238.6z"/>
		<path d="M332.7,192.4H319l3.2-9h11.5L332.7,192.4z M320.5,191.3h11.2l0.8-6.8H323L320.5,191.3z"/>
		<path d="M328.2,232.4h-23.5l14.6-41.1h13.5L328.2,232.4z M306.2,231.3h21l0.8-7.1h-19.3L306.2,231.3z M309.1,223.1h19l0.9-7.6h-17
			L309.1,223.1z M312.3,214.3h16.9l0.7-6.4h-15.3L312.3,214.3z M314.9,206.7h14.9l0.8-7.4h-13.2L314.9,206.7z M318,198.2h12.9
			l0.7-5.9h-11.5L318,198.2z"/>
		<path d="M295.5,248.4H284l4.7-10.4H299L295.5,248.4z M285.7,247.3h9.1l1.2-3.8h-8.6L285.7,247.3z M287.8,242.5h8.5l1.1-3.2h-8.1
			L287.8,242.5z"/>
		<path d="M298.6,239.3h-10.5l2.6-5.6h9.8L298.6,239.3z M289.8,238.1h7.9l1.1-3.4h-7.6L289.8,238.1z"/>
		<path d="M290.5,263.5h-13.4l4.9-10.9h12L290.5,263.5z M278.9,262.4h10.8l1.2-3.8h-10.4L278.9,262.4z M281,257.5h10.3l1.2-3.8h-9.8
			L281,257.5z"/>
		<path d="M288.8,268.7h-13.9l2.8-6.3H291L288.8,268.7z M276.6,267.6H288l1.4-4h-10.9L276.6,267.6z"/>
		<path d="M293.7,253.7h-12.1l2.9-6.4H296L293.7,253.7z M283.3,252.6h9.7l1.4-4.3h-9.2L283.3,252.6z"/>
		<path d="M301.7,230.2h-9.5l2.5-5.4h8.8L301.7,230.2z M293.9,229.1h6.9l1-3.1h-6.6L293.9,229.1z"/>
		<path d="M300.1,234.8h-9.9l2.6-5.7h9.2L300.1,234.8z M291.8,233.7h7.5l1.1-3.5h-7L291.8,233.7z"/>
		<path d="M303,226h-8.9l4.5-9.8h7.8L303,226z M295.9,224.9h6.4l1-3h-6L295.9,224.9z M297.6,220.7h5.9l1.1-3.5h-5.5L297.6,220.7z"/>
		<path d="M311.2,201.3h-6l2.3-5.1h5.5L311.2,201.3z M306.9,200.2h3.5l1-2.9h-3.1L306.9,200.2z"/>
		<path d="M313.7,194h-5.1l4.8-10.6h3.9L313.7,194z M310.2,192.8h2.7l0.9-2.6h-2.3L310.2,192.8z M311.9,189.1h2.2l0.7-2h-2
			L311.9,189.1z M313.4,186.1h1.8l0.6-1.5H314L313.4,186.1z"/>
		<path d="M312.6,197.4H307l2.1-4.6h5L312.6,197.4z M308.7,196.3h3l0.8-2.3h-2.8L308.7,196.3z"/>
		<path d="M309.9,205.4h-6.4l2.3-5.1h5.9L309.9,205.4z M305.1,204.3h4l1-2.9h-3.7L305.1,204.3z"/>
		<path d="M305.9,217.3H298l5.8-12.9h6.4L305.9,217.3z M299.7,216.1h5.4l1.1-3.5h-4.9L299.7,216.1z M301.7,211.6h4.8l0.9-2.7h-4.6
			L301.7,211.6z M303.6,207.7h4.3l0.8-2.3h-4.2L303.6,207.7z"/>
		<path d="M350.5,196.7h-14.1l0.9-7.6h12.3L350.5,196.7z M337.8,195.5h11.5l-0.7-5.4h-10.3L337.8,195.5z"/>
		<path d="M351.4,204.1h-15.7l1-8.6h13.7L351.4,204.1z M336.9,203h13.3l-0.8-6.4h-11.8L336.9,203z"/>
		<path d="M349.7,190.2h-12.5l0.8-6.8h10.9L349.7,190.2z M338.5,189.1h10l-0.6-4.6H339L338.5,189.1z"/>
		<path d="M352.5,213.7h-17.9l1.2-10.8h15.5L352.5,213.7z M335.8,212.6h15.5l-1-8.6h-13.5L335.8,212.6z"/>
		<path d="M355.7,240.4h-24.2l1.2-11.3h21.6L355.7,240.4z M332.8,239.3h21.8l-1.1-9h-19.6L332.8,239.3z"/>
		<path d="M357.8,258.6h-28.4l2.2-19.4h24L357.8,258.6z M330.7,257.5h26l-0.9-7.8h-24.1L330.7,257.5z M331.6,248.6h23.9l-1-8.3h-22
			L331.6,248.6z"/>
		<path d="M354.5,230.2h-21.9l1.1-9.5h19.6L354.5,230.2z M333.9,229.1h19.3l-0.9-7.2h-17.5L333.9,229.1z"/>
		<path d="M353.5,221.8h-19.9l1-9.2h17.7L353.5,221.8z M334.9,220.7h17.4l-0.8-7h-15.7L334.9,220.7z"/>
		<path d="M369.1,201.3h-14.6l-2-17.9h10.7L369.1,201.3z M355.5,200.2h12.1l-2.1-6.4h-10.6L355.5,200.2z M354.7,192.8h10.5l-2.8-8.4
			h-8.7L354.7,192.8z"/>
		<path d="M391.3,268.1H362l-4.5-39.6H378L391.3,268.1z M363,267h26.8l-3.2-9.8H362L363,267z M361.8,256.1h24.3l-2.8-8.4h-22.5
			L361.8,256.1z M360.7,246.6H383l-2.7-8.3H360L360.7,246.6z M359.6,237.3h20.2l-2.6-7.7h-18.5L359.6,237.3z"/>
		<path d="M378.5,229.6h-20.8l-3.2-29.3h14.4L378.5,229.6z M358.7,228.5H377l-2.6-7.8H358L358.7,228.5z M357.7,219.6H374l-2.9-8.7
			h-14.4L357.7,219.6z M356.6,209.8h14.2l-2.8-8.5h-12.3L356.6,209.8z"/>
		<path d="M391.8,223.2h-10l-6.4-19h7.7L391.8,223.2z M382.5,222.1h7.5l-2.2-4.8h-6.9L382.5,222.1z M380.5,216.1h6.8l-2.5-5.2h-6.1
			L380.5,216.1z M378.3,209.8h5.9l-2-4.3h-5.4L378.3,209.8z"/>
		<path d="M383.5,205.4h-7.8l-7.5-22.1h5L383.5,205.4z M376.5,204.3h5.2l-2.3-4.9h-4.6L376.5,204.3z M374.4,198.2h4.5l-2-4.3H373
			L374.4,198.2z M372.6,192.8h3.8l-1.8-3.9h-3.2L372.6,192.8z M369.8,184.5l1.1,3.4v-0.1h3.1l-1.5-3.4L369.8,184.5L369.8,184.5
			L369.8,184.5z"/>
		<path d="M412.7,268.1h-15.8l-3.5-10.6h14.5L412.7,268.1z M397.7,267H411l-3.9-8.4H395L397.7,267z"/>
		<path d="M399.8,240.4h-12.3l-6.1-18.3h9.9L399.8,240.4z M388.3,239.3h9.7l-3.7-7.9h-8.7L388.3,239.3z M385.2,230.2h8.6l-3.2-6.9
			h-7.7L385.2,230.2z"/>
		<path d="M408.2,258.6h-14.6l-3.5-10h13.3L408.2,258.6z M394.6,257.5h12.1l-3.7-7.8h-11L394.6,257.5z"/>
		<path d="M404.1,249.7h-13.5l-3.5-10.5h12.1L404.1,249.7z M391.4,248.6h10.9l-3.8-8.3h-9.8L391.4,248.6z"/>
		<path d="M367.8,171.9h-17.2V167h3.2v2.3h0.5V167h3.2v2.3h0.5V167h3.2v2.3h0.5V167h3.2v2.3h0.5V167h3.2v4.9H367.8z M351.4,171h15.9
			v-3.2h-1.5v2.3h-2v-2.3h-1.5v2.3h-2.1v-2.3h-1.5v2.3h-2.2v-2.3H355v2.3h-2.1v-2.3h-1.5L351.4,171L351.4,171z"/>
		<path d="M349.1,171.9h-11.5v-5.5h11.5V171.9z M338.5,171.1h9.8v-3.8h-9.8V171.1z"/>
		<path id="catedralFim" d="M335.9,171.9h-17.2V167h3.2v2.3h0.5V167h3.2v2.3h0.5V167h3.2v2.3h0.5V167h3.2v2.3h0.5V167h3.2v4.9H335.9z M319.6,171h15.9
			v-3.2H334v2.3h-2.1v-2.3h-1.5v2.3h-2.1v-2.3h-1.5v2.3h-1.9v-2.3h-1.5v2.3h-2.1v-2.3h-1.6L319.6,171L319.6,171z"/>

  
  
		<path class="folha-arvoreDireita" id="arvore_direita1" d="M209.8,243.1c-1.4,0-3-0.7-3-4.1c0-0.6,0-1.1-0.1-1.5c-0.1-1.4-0.2-2.7,0.9-3c0.2-0.1,0.6-0.1,1.4,0.3
			c1.4,0.8,3.7,2.6,4.3,4.7c0.2,1,0.1,1.8-0.5,2.5C212.1,242.7,211,243.1,209.8,243.1z M207.8,235.4c-0.2,0.1-0.1,1.1,0,1.9
			c0,0.6,0.1,1.1,0.1,1.7c0,2.7,1,3,1.9,3s1.7-0.3,2.1-0.8c0.3-0.5,0.3-0.9,0.2-1.5l0,0C211.4,237.4,208.3,235.4,207.8,235.4z"/>
		<path class="folha-arvoreDireita" id="arvore_direita2" d="M217.9,248.9c-0.2,0-0.5,0-0.8-0.1c-0.8-0.2-1.5-0.7-2.3-1.5c-0.3-0.3-0.8-0.8-1.1-1c-1-0.9-2-1.8-1.5-2.8
			c0.1-0.2,0.3-0.5,1.2-0.8c1.4-0.5,4.5-0.8,6.4,0.3l0,0c0.9,0.5,1.4,1.2,1.4,2.1c0.1,1-0.3,2.1-1.2,3
			C219.2,248.6,218.6,248.9,217.9,248.9z M216.2,243.4c-1.5,0-3,0.3-3.2,0.7c-0.1,0.2,0.8,0.9,1.4,1.4c0.5,0.3,0.8,0.7,1.2,1.1
			c0.7,0.7,1.4,1.1,1.9,1.2c0.6,0.1,1.1,0,1.5-0.5c0.7-0.7,1-1.4,0.9-2s-0.3-0.9-0.9-1.2l0,0C218.2,243.5,217.3,243.4,216.2,243.4z"
			/>
		<path class="folha-arvoreDireita" id="arvore_direita3" d="M221.5,255c-0.2-0.1-0.3-0.1-0.6-0.3c-0.6-0.3-1-1-1.4-1.9c-0.2-0.5-0.5-0.8-0.6-1.1c-0.6-1-1.1-2-0.5-2.6
			c0.1-0.1,0.5-0.3,1.2-0.2c1.2,0.1,3.7,0.7,4.8,2.1l0,0c0.6,0.7,0.7,1.4,0.6,2c-0.2,0.8-0.9,1.5-1.8,2
			C222.7,255.2,222,255.2,221.5,255z M221.8,250.2c-1.2-0.5-2.5-0.6-2.7-0.5c-0.1,0.1,0.3,0.9,0.7,1.4c0.2,0.3,0.5,0.8,0.7,1.2
			c0.3,0.8,0.7,1.2,1.1,1.5c0.5,0.3,0.9,0.3,1.4,0.1c0.7-0.3,1.1-0.8,1.4-1.4c0.1-0.5,0-0.8-0.3-1.2l0,0
			C223.4,250.8,222.6,250.5,221.8,250.2z"/>
		<path class="folha-arvoreDireita" id="arvore_direita4" d="M238.3,251.7c0.1-0.1,0.1-0.3,0.3-0.5c0.3-0.5,0.9-0.8,1.7-1c0.3-0.1,0.7-0.2,1-0.5c0.9-0.3,1.7-0.8,2.2-0.1
			c0.1,0.1,0.2,0.3,0.1,1c-0.1,1-0.9,3-2.1,3.8l0,0c-0.6,0.3-1.1,0.5-1.7,0.3c-0.7-0.2-1.2-0.8-1.4-1.7
			C238.1,252.6,238.1,252.2,238.3,251.7z M242.2,252.4c0.5-0.9,0.7-1.9,0.6-2.2c-0.1-0.1-0.8,0.2-1.2,0.5c-0.3,0.1-0.7,0.3-1,0.5
			c-0.7,0.2-1.1,0.5-1.4,0.8c-0.2,0.3-0.3,0.7-0.2,1.1c0.2,0.6,0.6,1,1,1.1c0.3,0.1,0.7,0,1-0.2l0,0
			C241.5,253.5,241.9,252.9,242.2,252.4z"/>
		<path class="folha-arvoreDireita" id="arvore_direita5" d="M241,245.1c0-0.1,0-0.3,0-0.6c0.1-0.6,0.3-1.1,0.9-1.8c0.2-0.3,0.5-0.6,0.7-0.9c0.6-0.8,1-1.5,1.8-1.4
			c0.1,0,0.3,0.2,0.7,0.8c0.5,1,0.9,3,0.3,4.3l0,0c-0.2,0.7-0.7,1-1.2,1.2c-0.7,0.2-1.4,0-2.1-0.6C241.3,246,241.1,245.6,241,245.1z
			 M244.7,243.5c-0.1-1-0.6-2-0.7-2.1c-0.1,0-0.6,0.6-0.8,1c-0.2,0.3-0.5,0.7-0.7,0.9c-0.5,0.6-0.7,1-0.7,1.4
			c-0.1,0.5,0.1,0.8,0.5,1c0.6,0.3,1,0.6,1.4,0.5c0.3-0.1,0.6-0.3,0.8-0.8l0,0C244.7,244.8,244.8,244.2,244.7,243.5z"/>
		<path class="folha-arvoreDireita" id="arvore_direita6" d="M243.8,246.7c0.1-0.2,0.2-0.3,0.3-0.5c0.5-0.5,1-0.9,2-1.1c0.5-0.1,0.8-0.3,1.1-0.5c1-0.5,2-0.9,2.6-0.2
			c0.1,0.1,0.2,0.5,0.1,1.1c-0.2,1.2-1,3.5-2.5,4.5l0,0c-0.7,0.5-1.4,0.6-2,0.3c-0.8-0.2-1.4-0.9-1.7-1.9
			C243.5,247.9,243.6,247.3,243.8,246.7z M248.4,247.5c0.6-1.1,0.8-2.2,0.7-2.6c-0.1-0.1-0.9,0.2-1.4,0.5c-0.3,0.2-0.8,0.3-1.2,0.5
			c-0.8,0.2-1.2,0.6-1.5,0.9c-0.3,0.3-0.3,0.8-0.2,1.4c0.2,0.7,0.7,1.2,1.1,1.4c0.3,0.1,0.8,0,1.2-0.2l0,0
			C247.6,248.8,248,248.2,248.4,247.5z"/>
		<path class="folha-arvoreDireita" id="arvore_direita7" d="M227.3,237.9c-2.1,0-4.5-1.5-4.5-3.9c0-0.6,0-1.1-0.1-1.5c-0.1-1.4-0.2-2.7,0.9-3c0.7-0.2,1.9,0.5,2.5,0.7
			c0.9,0.5,3.1,1.9,3.7,3.9l0,0c0.3,1.4,0.2,2.3-0.3,3.1C229.2,237.4,228.5,237.9,227.3,237.9z M223.9,230.4L223.9,230.4
			c-0.2,0.1-0.1,1.1-0.1,1.9c0,0.6,0.1,1.1,0.1,1.7c0,1.7,1.7,2.8,3.4,2.8c0.6,0,1-0.1,1.2-0.5c0.3-0.5,0.3-1.1,0.1-2.1
			C228,232.1,224.6,230.4,223.9,230.4z"/>
		<path class="folha-arvoreDireita" id="arvore_direita8" d="M230,233c-2.2,0-4.1-1.9-4.1-4.1c0-0.6,0-1.1-0.1-1.5c-0.1-1.4-0.2-2.7,0.9-3c0.6-0.2,1.4,0.2,2.2,0.6
			c0.8,0.5,3.2,1.9,3.8,4c0.3,1.2,0.2,2.3-0.5,3.1C231.8,232.5,231.2,233,230,233z M226.9,225.3
			C226.8,225.3,226.8,225.3,226.9,225.3c-0.2,0.1-0.1,1.1-0.1,1.9c0,0.6,0.1,1.1,0.1,1.7c0,1.5,1.4,3,3,3c0.7,0,1.1-0.2,1.4-0.6
			c0.3-0.5,0.5-1.2,0.2-2.2l0,0C230.9,227.1,227.6,225.3,226.9,225.3z"/>
		<path class="folha-arvoreDireita" id="arvore_direita9" d="M235.8,235.4c-0.6,0-1.2-0.2-2-0.9c-0.8-0.8-1.2-1.8-1.2-2.9s0.5-2.1,1.2-2.9c0.3-0.3,0.8-0.8,1-1.1c0.9-1,1.8-2,2.8-1.5
			c0.6,0.2,0.9,1.2,1.1,2c0.2,0.8,1,3.7-0.1,5.6l0,0c-0.7,1.1-1.5,1.8-2.5,1.9C236,235.4,235.8,235.4,235.8,235.4z M237,226.9
			c-0.2,0-0.9,0.8-1.4,1.4c-0.3,0.5-0.7,0.8-1.1,1.2c-0.6,0.6-0.9,1.4-0.9,2.1c0,0.8,0.3,1.5,0.9,2.1c0.5,0.5,0.9,0.7,1.4,0.6
			c0.6-0.1,1.2-0.6,1.7-1.4C238.6,231,237.4,227.3,237,226.9L237,226.9z"/>
		<path class="folha-arvoreDireita" id="arvore_direita10" d="M240.4,240.9c-0.6,0-1.2-0.2-2-0.9c-0.8-0.8-1.2-1.8-1.2-2.9s0.5-2.1,1.2-2.9c0.3-0.3,0.8-0.8,1-1.1c0.9-1,1.8-2,2.8-1.5
			c0.6,0.2,0.9,1.2,1.1,2c0.2,0.8,1,3.7-0.1,5.6l0,0l0,0c-0.7,1.1-1.5,1.8-2.5,1.9C240.7,240.9,240.6,240.9,240.4,240.9z
			 M241.6,232.4c-0.2,0-0.9,0.8-1.4,1.4c-0.3,0.5-0.7,0.8-1.1,1.2c-0.6,0.6-0.9,1.4-0.9,2.1s0.3,1.5,0.9,2.1
			c0.5,0.5,0.9,0.7,1.4,0.6c0.6-0.1,1.2-0.6,1.7-1.4l0,0C243.3,236.6,242.1,232.9,241.6,232.4L241.6,232.4z"/>
		<path class="folha-arvoreDireita" id="arvore_direita11" d="M236.3,248.4c-0.5,0-0.9-0.1-1.4-0.3s-1.1-0.9-1.4-2c-0.3-2.2,1.2-4.5,3.4-4.8c0.6-0.1,1-0.2,1.5-0.3
			c1.4-0.3,2.6-0.7,3.1,0.3c0.2,0.5,0,1.5-0.2,2.2c-0.2,0.8-1.4,3.5-3.4,4.5C237.5,248.2,237,248.4,236.3,248.4z M240.6,241.6
			c-0.3,0-1.1,0.2-1.7,0.3c-0.6,0.1-1,0.2-1.5,0.3c-1.5,0.2-2.8,1.9-2.5,3.5c0.1,0.6,0.3,1,0.8,1.2c0.6,0.3,1.4,0.2,2.2-0.1l0,0
			c2-0.9,3.1-4.6,3-5.2C240.7,241.6,240.7,241.6,240.6,241.6z"/>
		<path class="folha-arvoreDireita" id="arvore_direita12" d="M246.4,239.1c-0.5,0-0.9-0.1-1.4-0.3s-1.1-0.9-1.4-2c-0.3-2.2,1.2-4.5,3.4-4.8c0.6-0.1,1-0.2,1.5-0.3
			c1.4-0.3,2.6-0.7,3.1,0.3c0.2,0.5,0,1.5-0.2,2.2c-0.2,0.8-1.4,3.5-3.4,4.5C247.6,239,246.9,239.1,246.4,239.1z M250.6,232.4
			c-0.3,0-1.1,0.2-1.7,0.3c-0.6,0.1-1,0.2-1.5,0.3c-1.5,0.2-2.8,1.9-2.5,3.5c0.1,0.6,0.3,1,0.8,1.2c0.6,0.3,1.4,0.2,2.2-0.1l0,0
			c2-0.9,3.1-4.6,3-5.2C250.7,232.4,250.7,232.4,250.6,232.4z"/>
		<path class="folha-arvoreDireita" id="arvore_direita13" d="M247.5,245.4c-0.5,0-0.9-0.1-1.4-0.3s-1.1-0.9-1.4-2c-0.2-1,0.1-2.2,0.7-3.1c0.7-0.9,1.5-1.5,2.7-1.7
			c0.6-0.1,1-0.2,1.5-0.3c1.4-0.3,2.6-0.7,3.1,0.3c0.2,0.5,0,1.4-0.2,2.2s-1.4,3.5-3.4,4.5l0,0C248.7,245.3,248.1,245.4,247.5,245.4
			z M251.7,238.7c-0.3,0-1.1,0.2-1.7,0.3c-0.6,0.1-1,0.2-1.5,0.3c-0.8,0.1-1.4,0.6-1.9,1.2c-0.5,0.7-0.7,1.4-0.6,2.2
			c0.1,0.6,0.3,1,0.8,1.2c0.6,0.3,1.4,0.2,2.2-0.1l0,0c2-0.9,3.1-4.6,3-5.2C251.9,238.7,251.8,238.7,251.7,238.7z"/>
		<path class="folha-arvoreDireita" id="arvore_direita14" d="M258.5,258.9c-0.6,0-1.1-0.2-1.7-0.3c-0.8-0.2-3.5-1.4-4.5-3.4l0,0c-0.6-1.2-0.6-2.3-0.1-3.1c0.2-0.6,0.9-1.1,2-1.4
			c1-0.2,2.2,0.1,3.1,0.7c0.9,0.7,1.5,1.5,1.7,2.7c0.1,0.6,0.2,1,0.3,1.5c0.3,1.4,0.7,2.6-0.3,3.1
			C258.9,258.9,258.7,258.9,258.5,258.9z M253.4,254.8c0.9,2,4.6,3.1,5.2,3c0.2-0.1-0.1-1.1-0.2-1.9c-0.1-0.6-0.2-1-0.3-1.5
			c-0.1-0.8-0.6-1.4-1.2-1.9c-0.7-0.5-1.4-0.7-2.2-0.6c-0.6,0.1-1,0.3-1.2,0.8C252.9,253.1,253,253.8,253.4,254.8L253.4,254.8z"/>
		<path class="folha-arvoreDireita" id="arvore_direita15" d="M254.5,244.9c-0.5,0-0.9-0.1-1.4-0.3c-0.6-0.2-1.1-0.9-1.4-2c-0.2-1,0.1-2.2,0.7-3.1c0.7-0.9,1.5-1.5,2.7-1.7
			c0.6-0.1,1-0.2,1.5-0.3c1.4-0.3,2.6-0.7,3.1,0.3c0.2,0.5,0,1.4-0.2,2.2s-1.4,3.5-3.4,4.5C255.6,244.7,255,244.9,254.5,244.9z
			 M258.6,238.1c-0.3,0-1.1,0.2-1.7,0.3s-1,0.2-1.5,0.3c-0.8,0.1-1.4,0.6-1.9,1.2c-0.5,0.7-0.7,1.4-0.6,2.2c0.1,0.6,0.3,1,0.8,1.2
			c0.6,0.3,1.4,0.2,2.2-0.1l0,0c2-0.9,3.1-4.6,3-5.2C258.8,238.1,258.7,238.1,258.6,238.1z"/>
		<path class="folha-arvoreDireita" id="arvore_direita16" d="M253.5,251.2c-0.5,0-0.9-0.1-1.4-0.3s-1.1-0.9-1.4-2c-0.2-1,0.1-2.2,0.7-3.1c0.7-0.9,1.5-1.5,2.7-1.7
			c0.6-0.1,1-0.2,1.5-0.3c1.4-0.3,2.6-0.7,3.1,0.3c0.2,0.5,0,1.5-0.2,2.2c-0.2,0.8-1.4,3.5-3.4,4.5l0,0
			C254.7,251.1,254,251.2,253.5,251.2z M257.6,244.4c-0.3,0-1.1,0.2-1.7,0.3c-0.6,0.1-1,0.2-1.5,0.3c-0.8,0.1-1.4,0.6-1.9,1.2
			c-0.5,0.7-0.7,1.4-0.6,2.2c0.1,0.6,0.3,1,0.8,1.2c0.6,0.3,1.4,0.2,2.2-0.1c2-0.9,3.1-4.6,3-5.2
			C257.8,244.5,257.8,244.4,257.6,244.4z"/>
		<path class="folha-arvoreDireita" id="arvore_direita17" d="M212.1,236.7c-1.4,0-3-0.7-3-4.1c0-0.6,0-1.1-0.1-1.5c-0.1-1.4-0.2-2.7,0.9-3c0.2-0.1,0.6-0.1,1.4,0.3
			c1.4,0.8,3.7,2.6,4.3,4.7c0.2,1,0.1,1.8-0.5,2.5C214.5,236.2,213.3,236.7,212.1,236.7z M210.1,229c-0.2,0.1-0.1,1.1,0,1.9
			c0,0.6,0.1,1.1,0.1,1.7c0,2.7,1,3,1.9,3s1.7-0.3,2.1-0.8c0.3-0.5,0.3-0.9,0.2-1.5l0,0C213.8,231.1,210.8,229.1,210.1,229z"/>
		<path class="folha-arvoreDireita" id="arvore_direita18" d="M208.5,248.7c-0.9,0-1.9-0.5-3.1-1.7c-0.3-0.3-0.8-0.8-1.1-1c-1-0.9-2-1.8-1.5-2.8c0.1-0.2,0.3-0.5,1.2-0.8
			c1.4-0.5,4.5-0.8,6.4,0.3l0,0c0.9,0.5,1.4,1.2,1.4,2c0.1,1-0.3,2.1-1.2,3C210,248.3,209.3,248.7,208.5,248.7z M206.8,243.1
			c-1.5,0-3,0.3-3.2,0.7c-0.1,0.2,0.8,0.9,1.4,1.4c0.5,0.3,0.8,0.7,1.2,1.1c1.9,1.9,2.9,1.4,3.5,0.8c0.7-0.7,1-1.4,0.9-2
			s-0.3-0.9-0.9-1.2l0,0C208.8,243.3,207.9,243.1,206.8,243.1z"/>
		<path class="folha-arvoreDireita" id="arvore_direita19" d="M207.5,255.1c-0.9,0-1.5-0.2-1.9-0.9c-0.1-0.2-0.1-0.6,0.3-1.4c0.8-1.4,2.6-3.7,4.7-4.3l0,0c1-0.2,1.8-0.1,2.5,0.5
			c0.8,0.6,1.2,1.7,1.2,3s-0.7,3-4.1,3c-0.6,0-1.1,0-1.5,0.1C208.3,255.1,207.9,255.1,207.5,255.1z M211,249.6
			c-2.2,0.6-4.3,3.7-4.3,4.3c0.1,0.2,1.1,0.1,1.9,0c0.6,0,1.1-0.1,1.7-0.1c2.7,0,3-1,3-1.9s-0.3-1.7-0.8-2.1
			C212.1,249.5,211.6,249.5,211,249.6L211,249.6z"/>
		<path class="folha-arvoreDireita" id="arvore_direita20" d="M213.8,260.7c-0.9,0-1.5-0.2-1.9-0.9c-0.1-0.2-0.1-0.6,0.3-1.4c0.8-1.4,2.6-3.7,4.7-4.3l0,0c1-0.2,1.8-0.1,2.5,0.5
			c0.8,0.6,1.2,1.7,1.2,3s-0.7,3-4.1,3c-0.6,0-1.1,0-1.5,0.1C214.7,260.7,214.2,260.7,213.8,260.7z M217.9,255.1
			c-0.2,0-0.3,0-0.6,0.1l0,0c-2.2,0.6-4.3,3.7-4.3,4.3c0.1,0.2,1.1,0.1,1.9,0c0.6,0,1.1-0.1,1.7-0.1c2.7,0,3-1,3-1.9
			s-0.3-1.7-0.8-2.1C218.6,255.2,218.2,255.1,217.9,255.1z"/>
		<path class="folha-arvoreDireita" id="arvore_direita21" d="M221.6,233.2c-0.1,0-0.2,0-0.3,0c-1.5-0.1-4.3-0.9-5.7-2.6l0,0c-0.6-0.8-0.8-1.7-0.6-2.5c0.2-1,1-1.8,2.2-2.3
			c1-0.5,2-0.3,2.8,0.2c0.7,0.5,1.1,1.2,1.7,2.3c0.2,0.5,0.5,1,0.7,1.4c0.7,1.2,1.2,2.3,0.5,3.1
			C222.5,233.1,222.3,233.2,221.6,233.2z M216.3,230c1.4,1.8,5,2.3,5.6,2.1c0.1-0.1-0.3-1.1-0.8-1.8c-0.2-0.5-0.6-1-0.8-1.4
			c-0.5-0.9-0.8-1.5-1.4-1.9c-0.5-0.3-1-0.5-1.7-0.1c-0.9,0.3-1.4,0.9-1.5,1.5C215.8,229,216,229.5,216.3,230L216.3,230z"/>
		<path class="folha-arvoreDireita" id="arvore_direita22" d="M226.2,246.2c-1.7,0-3.5-0.9-4.7-2.5l0,0c-0.8-1-1.1-2-0.9-2.9c0.2-0.8,0.8-1.5,1.7-2c1-0.6,1.9-0.7,2.8-0.3
			c1.4,0.5,2.1,1.8,2.6,2.8l0.2,0.7c0.7,1.5,1.4,3.1,0.2,3.8C227.5,245.9,226.8,246.2,226.2,246.2z M222.3,243
			c1.5,1.9,3.9,2.5,5.2,1.7c0.3-0.2-0.2-1.4-0.7-2.3l-0.2-0.7c-0.3-0.8-1-1.9-1.9-2.2c-0.6-0.2-1.2-0.1-1.9,0.2
			c-0.6,0.3-1,0.8-1.1,1.2C221.6,241.6,221.8,242.3,222.3,243L222.3,243z"/>
		<path class="folha-arvoreDireita" id="arvore_direita23" d="M218.1,241.4c-1,0-1.8-0.3-2.3-0.9c-0.7-0.8-0.9-1.9-0.7-3.5c0.1-0.5,0.1-1,0.1-1.5c0-1.1,0-2.1,0.6-2.6
			c0.1-0.1,0.3-0.2,0.8-0.2c1.1,0.2,4,2.8,4.7,4.1c0.5,0.9,0.5,2.1-0.2,3C220.3,240.8,219.2,241.4,218.1,241.4z M216.3,233.7
			c-0.1,0.3-0.1,1.1-0.1,1.5c0,0.6,0,1.2-0.1,1.8c-0.2,1.4,0,2.2,0.5,2.7c0.3,0.3,0.8,0.6,1.4,0.6c0.8,0,1.4-0.5,1.9-1.1
			c0.3-0.7,0.5-1.4,0.1-1.9C219.6,236,217.3,234.1,216.3,233.7z"/>
		<path class="folha-arvoreDireita" id="arvore_direita24" d="M230.1,253.6c-0.7,0-1.4-0.1-2-0.5c-1.9-0.9-2.6-3.1-1.4-5.2c1-2,1.9-3.7,3.2-3.5c0.7,0.1,1.5,1.2,1.9,1.7
			c0.7,0.9,2.1,3.1,1.7,5.1l0,0c-0.2,0.9-0.8,1.5-1.5,2C231.5,253.4,230.8,253.6,230.1,253.6z M229.8,245.4c-0.6,0-1.7,2.1-2,3
			c-0.7,1.4-0.7,3,0.9,3.8c0.9,0.5,2,0.5,2.8,0c0.3-0.2,0.9-0.6,1-1.2l0,0C232.9,248.7,230.4,245.6,229.8,245.4L229.8,245.4z"/>
		<path class="folha-arvoreDireita" id="arvore_direita25" d="M232.2,244.5c-0.1,0-0.3,0-0.5-0.1c-0.1,0-0.6-0.2-1.1-1.4c-0.8-1.5-1.4-4-0.6-5.8c0.3-0.9,1.1-1.5,2-1.8
			c1-0.3,2.2,0,3.2,0.7c1.7,1.2,1.9,3.5,0.5,5.5C234.5,243.1,233.4,244.5,232.2,244.5z M232.9,236.4c-0.2,0-0.3,0-0.6,0.1
			c-0.6,0.1-1,0.6-1.2,1.1l0,0c-0.9,2,0.7,5.5,1.1,5.8c0.6,0.1,2-1.8,2.6-2.6c0.9-1.2,1.2-2.9-0.2-3.9
			C234.1,236.6,233.5,236.4,232.9,236.4z"/>
		<path id="arvore_direita26" d="M234.1,279.4h-8.6c-0.8,0-1.2-0.3-1.4-0.7c-0.9-1.2-0.1-3.9,1-7.4c1.2-3.9,2.7-8.7,1.4-11.5c-0.2-0.5-0.7-0.6-1.5-1
			c-1.4-0.6-3.5-1.4-6.3-3.7l-0.5-0.5c-3-2.7-5.2-4.7-5.1-6.1c0-0.5,0.2-0.8,0.6-1c1-0.7,2,0.6,3.4,2c0.8,1,1.8,2.1,2.8,2.9
			c2.7,2.1,6.1,3.8,7,4c0.1-1.2-1.5-3.5-3-5.2c-1.7-2.1-2.7-3.5-2.5-4.5c0.1-0.3,0.3-0.7,0.7-0.9c0.2-0.1,0.7-0.2,1.2-0.1
			c2.3,0.8,5.6,7.4,6.8,9.9c0.8-1.2,2.5-3.5,4.3-4.9c0.1-0.1,7-5.7,8.5-4c0.2,0.2,0.3,0.6,0.2,0.9c-0.1,1.2-2.1,2.9-5.5,5.4
			c-1.4,1-3.5,2.6-4,3.4c1.1-0.2,4.5-1.5,8.5-3.5c2-1,4-2.3,5.7-3.5c2.6-1.8,4-2.8,4.9-1.9c0.2,0.2,0.5,0.6,0.3,1.1
			c-0.5,2-4.8,5.8-9.9,7.8c-2.3,0.9-4.8,1.5-6.8,2c-1.4,0.3-2.8,0.7-3.1,0.9c-0.8,3.1,0.6,7.5,1.7,11.4c1.1,3.5,1.9,6.4,0.9,7.7
			C235.4,279.1,234.9,279.4,234.1,279.4z M214.3,248.6L214.3,248.6c-0.1,0.1-0.1,0.1-0.1,0.2c-0.1,1,3,3.5,4.8,5.1l0.5,0.5
			c2.6,2.2,4.6,3,5.9,3.5c1.1,0.5,1.9,0.7,2.2,1.5c1.4,3.1-0.1,8-1.4,12.3c-0.9,2.8-1.7,5.7-1.1,6.4c0,0,0.1,0.2,0.6,0.2h8.6
			c0.6,0,0.7-0.1,0.8-0.3c0.7-0.9-0.2-3.9-1.1-6.7c-1.2-4-2.7-8.6-1.7-12.1c0.2-0.7,1.1-0.9,3.9-1.7c1.9-0.5,4.3-1.1,6.7-2
			c5.9-2.3,9.5-6.4,9.2-7.1c-0.5,0-2.1,1.1-3.5,2.1c-1.7,1.1-3.7,2.6-5.8,3.5c-4,1.9-8.9,4-9.7,3.5c-0.2-0.2-0.5-0.5-0.5-0.8
			c0-1,1.5-2.2,4.6-4.5c1.8-1.4,5.1-3.8,5-4.6c-0.7-0.2-4.7,2.2-7,4.1c-2.3,1.9-4.6,5.5-4.6,5.6l-0.6,0.9l-0.5-1
			c-1.5-3.7-4.8-9.6-6.6-10.3c-0.2-0.1-0.3,0-0.3,0c-0.1,0-0.1,0.1-0.1,0.1c-0.1,0.6,1.2,2.3,2.2,3.5c1.9,2.3,3.8,4.8,3.1,6.6
			c-0.1,0.2-0.2,0.3-0.6,0.5c-1.4,0.3-6-2.6-8.3-4.3c-1.1-0.9-2.1-2-3-3C215.6,249.7,214.7,248.6,214.3,248.6z M233.1,259.7
			L233.1,259.7L233.1,259.7z"/>
		<path class="folha-arvoreDireita" id="arvore_direita27" d="M251.6,261.9c-0.6,0-1.1-0.2-1.7-0.3c-0.8-0.2-3.5-1.4-4.5-3.4c-0.6-1.2-0.6-2.3-0.1-3.1c0.2-0.6,0.9-1.1,2-1.4
			c2.2-0.3,4.5,1.2,4.8,3.4c0.1,0.6,0.2,1,0.3,1.5c0.3,1.4,0.7,2.6-0.3,3.1C252,261.9,251.8,261.9,251.6,261.9z M248,254.8
			c-0.1,0-0.3,0-0.5,0c-0.6,0.1-1,0.3-1.2,0.8c-0.3,0.6-0.2,1.4,0.1,2.2l0,0c0.9,2,4.6,3.1,5.2,3c0.2-0.1-0.1-1.1-0.2-1.9
			c-0.1-0.6-0.2-1-0.3-1.5C250.8,255.8,249.5,254.8,248,254.8z"/>
		<path class="folha-arvoreDireita" id="arvore_direita28" d="M243.1,265.8c-0.5-0.1-1.1-0.5-1.5-0.8c-0.7-0.5-3-2.2-3.4-4.5c-0.2-1.4,0.1-2.3,0.8-3.1c0.5-0.5,1.1-0.9,2.3-0.7
			c2.2,0.2,3.9,2.3,3.7,4.6c-0.1,0.6-0.1,1.1-0.1,1.5c0,1.4-0.1,2.7-1.2,2.9C243.6,265.9,243.3,265.9,243.1,265.8z M241.6,258
			c-0.1,0-0.3-0.1-0.5-0.1c-0.7-0.1-1.1,0.1-1.4,0.5c-0.5,0.5-0.6,1.2-0.5,2.1l0,0c0.3,2.1,3.5,4.3,4.3,4.3c0.2,0,0.2-1.1,0.2-1.9
			c0-0.6,0-1.1,0.1-1.7C244.1,259.8,243.1,258.4,241.6,258z"/>

		<path class="folha-arvore" id="arvore_esquerda1" d="M24.5,241.8c-1.4,0-3-0.7-3-4.1c0-0.6,0-1.1-0.1-1.5c-0.1-1.4-0.2-2.7,0.9-3c0.2-0.1,0.6-0.1,1.4,0.3
			c1.4,0.8,3.7,2.6,4.3,4.7c0.2,1,0.1,1.8-0.5,2.5S25.9,241.8,24.5,241.8z M22.6,234.1c-0.2,0.1-0.1,1.1,0,1.9
			c0,0.6,0.1,1.1,0.1,1.7c0,2.7,1,3,1.9,3s1.7-0.3,2.1-0.8c0.3-0.5,0.3-0.9,0.2-1.5l0,0C26.3,236.1,23.2,234.1,22.6,234.1z"/>
		<path class="folha-arvore" id="arvore_esquerda2" d="M32.8,247.6c-0.2,0-0.5,0-0.8-0.1c-0.8-0.2-1.5-0.7-2.3-1.5c-0.3-0.3-0.8-0.8-1.1-1c-1-0.9-2-1.8-1.5-2.8
			c0.1-0.2,0.3-0.5,1.2-0.8c1.4-0.5,4.5-0.8,6.4,0.3l0,0c0.9,0.5,1.4,1.2,1.4,2.1c0.1,1-0.3,2.1-1.2,3
			C34.1,247.3,33.5,247.6,32.8,247.6z M31.1,242c-1.5,0-3,0.3-3.2,0.7c-0.1,0.2,0.8,0.9,1.4,1.4c0.5,0.3,0.8,0.7,1.2,1.1
			c0.7,0.7,1.4,1.1,1.9,1.2c0.6,0.1,1.1,0,1.5-0.5c0.7-0.7,1-1.4,0.9-2s-0.3-0.9-0.9-1.2l0,0C33.1,242.2,32.1,242,31.1,242z"/>
		<path class="folha-arvore" id="arvore_esquerda3" d="M36.4,253.6c-0.2-0.1-0.3-0.1-0.6-0.3c-0.6-0.3-1-1-1.4-1.9c-0.2-0.5-0.5-0.8-0.6-1.1c-0.6-1-1.1-2-0.5-2.6
			c0.1-0.1,0.5-0.3,1.2-0.2c1.2,0.1,3.7,0.7,4.8,2.1l0,0c0.6,0.7,0.7,1.4,0.6,2c-0.2,0.8-0.9,1.5-1.8,2
			C37.5,253.8,36.9,253.8,36.4,253.6z M36.7,248.8c-1.2-0.5-2.5-0.6-2.7-0.5c-0.1,0.1,0.3,0.9,0.7,1.4c0.2,0.3,0.5,0.8,0.7,1.2
			c0.3,0.8,0.7,1.2,1.1,1.5c0.5,0.3,0.9,0.3,1.4,0.1c0.7-0.3,1.1-0.8,1.4-1.4c0.1-0.5,0-0.8-0.3-1.2l0,0
			C38.2,249.5,37.5,249.2,36.7,248.8z"/>
		<path class="folha-arvore" id="arvore_esquerda4" d="M53.1,250.4c0.1-0.1,0.1-0.3,0.3-0.5c0.3-0.5,0.9-0.8,1.7-1c0.3-0.1,0.7-0.2,1-0.5c0.9-0.3,1.7-0.8,2.2-0.1
			c0.1,0.1,0.2,0.3,0.1,1c-0.1,1-0.9,3-2.1,3.8l0,0c-0.6,0.3-1.1,0.5-1.7,0.3c-0.7-0.2-1.2-0.8-1.4-1.7
			C52.8,251.3,52.8,250.8,53.1,250.4z M57.1,251.1c0.5-0.9,0.7-1.9,0.6-2.2c-0.1-0.1-0.8,0.2-1.2,0.5c-0.3,0.1-0.7,0.3-1,0.5
			c-0.7,0.2-1.1,0.5-1.4,0.8s-0.3,0.7-0.2,1.1c0.2,0.6,0.6,1,1,1.1c0.3,0.1,0.7,0,1-0.2l0,0C56.3,252.2,56.8,251.6,57.1,251.1z"/>
		<path class="folha-arvore" id="arvore_esquerda5" d="M55.9,243.7c0-0.1,0-0.3,0-0.6c0.1-0.6,0.3-1.1,0.9-1.8c0.2-0.3,0.5-0.6,0.7-0.9c0.6-0.8,1-1.5,1.8-1.4
			c0.1,0,0.3,0.2,0.7,0.8c0.5,1,0.9,3,0.3,4.3l0,0c-0.2,0.7-0.7,1-1.2,1.2c-0.7,0.2-1.4,0-2.1-0.6C56.2,244.7,55.9,244.3,55.9,243.7
			z M59.5,242.2c-0.1-1-0.6-2-0.7-2.1c-0.1,0-0.6,0.6-0.8,1c-0.2,0.3-0.5,0.7-0.7,0.9c-0.5,0.6-0.7,1-0.7,1.4
			c-0.1,0.5,0.1,0.8,0.5,1c0.6,0.3,1,0.6,1.4,0.5c0.3-0.1,0.6-0.3,0.8-0.8l0,0C59.5,243.5,59.5,242.8,59.5,242.2z"/>
		<path class="folha-arvore" id="arvore_esquerda6" d="M58.5,245.4c0.1-0.2,0.2-0.3,0.3-0.5c0.5-0.5,1-0.9,2-1.1c0.5-0.1,0.8-0.3,1.1-0.5c1-0.5,2-0.9,2.6-0.2
			c0.1,0.1,0.2,0.5,0.1,1.1c-0.2,1.2-1,3.5-2.5,4.5l0,0c-0.7,0.5-1.4,0.6-2,0.3c-0.8-0.2-1.4-0.9-1.7-1.9
			C58.3,246.5,58.3,245.9,58.5,245.4z M63.2,246.2c0.6-1.1,0.8-2.2,0.7-2.6c-0.1-0.1-0.9,0.2-1.4,0.5c-0.3,0.2-0.8,0.3-1.2,0.5
			c-0.8,0.2-1.2,0.6-1.5,0.9s-0.3,0.8-0.2,1.4c0.2,0.7,0.7,1.2,1.1,1.4c0.3,0.1,0.8,0,1.2-0.2l0,0C62.3,247.5,62.8,246.8,63.2,246.2
			z"/>
		<path class="folha-arvore" id="arvore_esquerda7" d="M42.2,236.6c-2.1,0-4.5-1.5-4.5-3.9c0-0.6,0-1.1-0.1-1.5c-0.1-1.4-0.2-2.7,0.9-3c0.7-0.2,1.9,0.5,2.5,0.7
			c0.9,0.5,3.1,1.9,3.7,3.9l0,0c0.3,1.4,0.2,2.3-0.3,3.1C43.9,236.1,43.4,236.6,42.2,236.6z M38.8,229.2L38.8,229.2
			c-0.2,0.1-0.1,1.1-0.1,1.9c0,0.6,0.1,1.1,0.1,1.7c0,1.7,1.7,2.8,3.4,2.8c0.6,0,1-0.1,1.2-0.5c0.3-0.5,0.3-1.1,0.1-2.1
			C42.9,230.8,39.4,229.2,38.8,229.2z"/>
		<path class="folha-arvore" id="arvore_esquerda8" d="M44.8,231.8c-2.2,0-4.1-1.9-4.1-4.1c0-0.6,0-1.1-0.1-1.5c-0.1-1.4-0.2-2.7,0.9-3c0.6-0.2,1.4,0.2,2.2,0.6
			c0.8,0.5,3.2,1.9,3.8,4c0.3,1.2,0.2,2.3-0.5,3.1C46.7,231.2,46.1,231.8,44.8,231.8z M41.7,224.1L41.7,224.1
			c-0.2,0.1-0.1,1.1-0.1,1.9c0,0.6,0.1,1.1,0.1,1.7c0,1.5,1.4,3,3,3c0.7,0,1.1-0.2,1.4-0.6c0.3-0.5,0.5-1.2,0.2-2.2l0,0
			C45.8,225.8,42.4,224.1,41.7,224.1z"/>
		<path class="folha-arvore" id="arvore_esquerda9" d="M50.5,234.1c-0.6,0-1.2-0.2-2-0.9c-0.8-0.8-1.2-1.8-1.2-2.9s0.5-2.1,1.2-2.9c0.3-0.3,0.8-0.8,1-1.1c0.9-1,1.8-2,2.8-1.5
			c0.6,0.2,0.9,1.2,1.1,2c0.2,0.8,1,3.7-0.1,5.6l0,0c-0.7,1.1-1.5,1.8-2.5,1.9C50.7,234.1,50.6,234.1,50.5,234.1z M51.7,225.5
			c-0.2,0-0.9,0.8-1.4,1.4c-0.3,0.5-0.7,0.8-1.1,1.2c-0.6,0.6-0.9,1.4-0.9,2.1c0,0.7,0.3,1.5,0.9,2.1c0.5,0.5,0.9,0.7,1.4,0.6
			c0.6-0.1,1.2-0.6,1.7-1.4C53.6,229.6,52.3,226,51.7,225.5C51.9,225.5,51.9,225.5,51.7,225.5z"/>
		<path class="folha-arvore" id="arvore_esquerda10" d="M55.2,239.7c-0.6,0-1.2-0.2-2-0.9c-0.8-0.8-1.2-1.8-1.2-2.9c0-1.1,0.5-2.1,1.2-2.9c0.3-0.3,0.8-0.8,1-1.1
			c0.9-1,1.8-2,2.8-1.5c0.6,0.2,0.9,1.2,1.1,2c0.2,0.8,1,3.7-0.1,5.6l0,0l0,0c-0.7,1.1-1.5,1.8-2.5,1.9
			C55.4,239.6,55.3,239.7,55.2,239.7z M56.4,231.1c-0.2,0-0.9,0.8-1.4,1.4c-0.3,0.5-0.7,0.8-1.1,1.2c-0.6,0.6-0.9,1.4-0.9,2.1
			s0.3,1.5,0.9,2.1c0.5,0.5,0.9,0.7,1.4,0.6c0.6-0.1,1.2-0.6,1.7-1.4l0,0C58.2,235.2,57,231.6,56.4,231.1
			C56.5,231.1,56.5,231.1,56.4,231.1z"/>
		<path class="folha-arvore" id="arvore_esquerda11" d="M51.2,247.1c-0.5,0-0.9-0.1-1.4-0.3s-1.1-0.9-1.4-2c-0.3-2.2,1.2-4.5,3.4-4.8c0.6-0.1,1-0.2,1.5-0.3
			c1.4-0.3,2.6-0.7,3.1,0.3c0.2,0.5,0,1.5-0.2,2.2c-0.2,0.8-1.4,3.5-3.4,4.5C52.4,246.8,51.7,247.1,51.2,247.1z M55.4,240.2
			c-0.3,0-1.1,0.2-1.7,0.3c-0.6,0.1-1,0.2-1.5,0.3c-1.5,0.2-2.8,1.9-2.5,3.5c0.1,0.6,0.3,1,0.8,1.2c0.6,0.3,1.4,0.2,2.2-0.1l0,0
			c2-0.9,3.1-4.6,3-5.2C55.5,240.2,55.5,240.2,55.4,240.2z"/>
		<path class="folha-arvore" id="arvore_esquerda12" d="M61.2,237.8c-0.5,0-0.9-0.1-1.4-0.3s-1.1-0.9-1.4-2c-0.3-2.2,1.2-4.5,3.4-4.8c0.6-0.1,1-0.2,1.5-0.3
			c1.4-0.3,2.6-0.7,3.1,0.3c0.2,0.5,0,1.5-0.2,2.2c-0.2,0.8-1.4,3.5-3.4,4.5C62.3,237.7,61.8,237.8,61.2,237.8z M65.4,231.1
			c-0.3,0-1.1,0.2-1.7,0.3c-0.6,0.1-1,0.2-1.5,0.3c-1.5,0.2-2.8,1.9-2.5,3.5c0.1,0.6,0.3,1,0.8,1.2c0.6,0.3,1.4,0.2,2.2-0.1l0,0
			c2-0.9,3.1-4.6,3-5.2C65.6,231.1,65.5,231.1,65.4,231.1z"/>
		<path class="folha-arvore" id="arvore_esquerda13" d="M62.3,244c-0.5,0-0.9-0.1-1.4-0.3s-1.1-0.9-1.4-2c-0.2-1,0.1-2.2,0.7-3.1c0.7-0.9,1.5-1.5,2.7-1.7c0.6-0.1,1-0.2,1.5-0.3
			c1.4-0.3,2.6-0.7,3.1,0.3c0.2,0.5,0,1.4-0.2,2.2s-1.4,3.5-3.4,4.5l0,0C63.5,243.9,62.9,244,62.3,244z M66.6,237.3
			c-0.3,0-1.1,0.2-1.7,0.3s-1,0.2-1.5,0.3c-0.8,0.1-1.4,0.6-1.9,1.2c-0.5,0.7-0.7,1.4-0.6,2.2c0.1,0.6,0.3,1,0.8,1.2
			c0.6,0.3,1.4,0.2,2.2-0.1l0,0c2-0.9,3.1-4.6,3-5.2C66.7,237.3,66.7,237.3,66.6,237.3z"/>
		<path class="folha-arvore" id="arvore_esquerda14" d="M73.4,257.5c-0.6,0-1.1-0.2-1.7-0.3c-0.8-0.2-3.5-1.4-4.5-3.4l0,0c-0.6-1.2-0.6-2.3-0.1-3.1c0.2-0.6,0.9-1.1,2-1.4
			c1-0.2,2.2,0.1,3.1,0.7c0.9,0.7,1.5,1.5,1.7,2.7c0.1,0.6,0.2,1,0.3,1.5c0.3,1.4,0.7,2.6-0.3,3.1C73.8,257.5,73.6,257.5,73.4,257.5
			z M68.3,253.4c0.9,2,4.6,3.1,5.2,3c0.2-0.1-0.1-1.1-0.2-1.9c-0.1-0.6-0.2-1-0.3-1.5c-0.1-0.8-0.6-1.4-1.2-1.9
			c-0.7-0.5-1.4-0.7-2.2-0.6c-0.6,0.1-1,0.3-1.2,0.8C67.8,251.7,67.8,252.5,68.3,253.4L68.3,253.4z"/>
		<path class="folha-arvore" id="arvore_esquerda15" d="M69.2,243.6c-0.5,0-0.9-0.1-1.4-0.3c-0.6-0.2-1.1-0.9-1.4-2c-0.2-1,0.1-2.2,0.7-3.1c0.7-0.9,1.5-1.5,2.7-1.7
			c0.6-0.1,1-0.2,1.5-0.3c1.4-0.3,2.6-0.7,3.1,0.3c0.2,0.5,0,1.4-0.2,2.2s-1.4,3.5-3.4,4.5C70.5,243.4,69.8,243.6,69.2,243.6z
			 M73.5,236.8c-0.3,0-1.1,0.2-1.7,0.3s-1,0.2-1.5,0.3c-0.8,0.1-1.4,0.6-1.9,1.2c-0.5,0.7-0.7,1.4-0.6,2.2c0.1,0.6,0.3,1,0.8,1.2
			c0.6,0.3,1.4,0.2,2.2-0.1l0,0c2-0.9,3.1-4.6,3-5.2C73.7,236.8,73.6,236.8,73.5,236.8z"/>
		<path class="folha-arvore" id="arvore_esquerda16" d="M68.4,249.8c-0.5,0-0.9-0.1-1.4-0.3s-1.1-0.9-1.4-2c-0.2-1,0.1-2.2,0.7-3.1c0.7-0.9,1.5-1.5,2.7-1.7
			c0.6-0.1,1-0.2,1.5-0.3c1.4-0.3,2.6-0.7,3.1,0.3c0.2,0.5,0,1.5-0.2,2.2c-0.2,0.8-1.4,3.5-3.4,4.5l0,0
			C69.5,249.7,68.9,249.8,68.4,249.8z M72.5,243c-0.3,0-1.1,0.2-1.7,0.3s-1,0.2-1.5,0.3c-0.8,0.1-1.4,0.6-1.9,1.2
			c-0.5,0.7-0.7,1.4-0.6,2.2c0.1,0.6,0.3,1,0.8,1.2c0.6,0.3,1.4,0.2,2.2-0.1c2-0.9,3.1-4.6,3-5.2C72.7,243.1,72.6,243,72.5,243z"/>
		<path class="folha-arvore" id="arvore_esquerda17" d="M27,235.3c-1.4,0-3-0.7-3-4.1c0-0.6,0-1.1-0.1-1.5c-0.1-1.4-0.2-2.7,0.9-3c0.2-0.1,0.6-0.1,1.4,0.3
			c1.4,0.8,3.7,2.6,4.3,4.7c0.2,1,0.1,1.8-0.5,2.5C29.3,234.9,28.2,235.3,27,235.3z M25,227.6c-0.2,0.1-0.1,1.1,0,1.9
			c0,0.6,0.1,1.1,0.1,1.7c0,2.7,1,3,1.9,3s1.7-0.3,2.1-0.8c0.3-0.5,0.3-0.9,0.2-1.5l0,0C28.7,229.8,25.5,227.8,25,227.6z"/>
		<path class="folha-arvore" id="arvore_esquerda18" d="M23.3,247.4c-0.9,0-1.9-0.5-3.1-1.7c-0.3-0.3-0.8-0.8-1.1-1c-1-0.9-2-1.8-1.5-2.8c0.1-0.2,0.3-0.5,1.2-0.8
			c1.4-0.5,4.5-0.8,6.4,0.3l0,0c0.9,0.5,1.4,1.2,1.4,2c0.1,1-0.3,2.1-1.2,3C24.9,246.9,24.2,247.4,23.3,247.4z M21.7,241.8
			c-1.5,0-3,0.3-3.2,0.7c-0.1,0.2,0.8,0.9,1.4,1.4c0.5,0.3,0.8,0.7,1.2,1.1c1.9,1.9,2.9,1.4,3.5,0.8c0.7-0.7,1-1.4,0.9-2
			s-0.3-0.9-0.9-1.2l0,0C23.8,241.9,22.6,241.8,21.7,241.8z"/>
		<path class="folha-arvore" id="arvore_esquerda19" d="M22.4,253.7c-0.9,0-1.5-0.2-1.9-0.9c-0.1-0.2-0.1-0.6,0.3-1.4c0.8-1.4,2.6-3.7,4.7-4.3l0,0c1-0.2,1.8-0.1,2.5,0.5
			c0.8,0.6,1.2,1.7,1.2,3s-0.7,3-4.1,3c-0.6,0-1.1,0-1.5,0.1C23.2,253.7,22.8,253.7,22.4,253.7z M25.9,248.3
			c-2.2,0.6-4.3,3.7-4.3,4.3c0.1,0.2,1.1,0.1,1.9,0c0.6,0,1.1-0.1,1.7-0.1c2.7,0,3-1,3-1.9s-0.3-1.7-0.8-2.1
			C27,248.2,26.4,248.2,25.9,248.3L25.9,248.3z"/>
		<path class="folha-arvore" id="arvore_esquerda20" d="M28.7,259.3c-0.9,0-1.5-0.2-1.9-0.9c-0.1-0.2-0.1-0.6,0.3-1.4c0.8-1.4,2.6-3.7,4.7-4.3l0,0c1-0.2,1.8-0.1,2.5,0.5
			c0.8,0.6,1.2,1.7,1.2,3c0,1.3-0.7,3-4.1,3c-0.6,0-1.1,0-1.5,0.1C29.5,259.3,29.1,259.3,28.7,259.3z M32.7,253.7
			c-0.2,0-0.3,0-0.6,0.1l0,0c-2.2,0.6-4.3,3.7-4.3,4.3c0.1,0.2,1.1,0.1,1.9,0c0.6,0,1.1-0.1,1.7-0.1c2.7,0,3-1,3-1.9
			s-0.3-1.7-0.8-2.1C33.3,253.8,33.1,253.7,32.7,253.7z"/>
		<path class="folha-arvore" id="arvore_esquerda21" d="M36.5,232c-0.1,0-0.2,0-0.3,0c-1.5-0.1-4.3-0.9-5.7-2.6l0,0c-0.6-0.8-0.8-1.7-0.6-2.5c0.2-1,1-1.8,2.2-2.3
			c1-0.5,2-0.3,2.8,0.2c0.7,0.5,1.1,1.2,1.7,2.3c0.2,0.5,0.5,1,0.7,1.4c0.7,1.2,1.2,2.3,0.5,3.1C37.3,231.8,37.2,232,36.5,232z
			 M31.2,228.7c1.4,1.8,5,2.3,5.6,2.1c0.1-0.1-0.3-1.1-0.8-1.8c-0.2-0.5-0.6-1-0.8-1.4c-0.5-0.9-0.8-1.5-1.4-1.9
			c-0.5-0.3-1-0.5-1.7-0.1c-0.9,0.3-1.4,0.9-1.5,1.5C30.7,227.6,30.8,228.1,31.2,228.7L31.2,228.7z"/>
		<path class="folha-arvore" id="arvore_esquerda22" d="M41,244.8c-1.7,0-3.5-0.9-4.7-2.5l0,0c-0.8-1-1.1-2-0.9-2.9c0.2-0.8,0.8-1.5,1.7-2c1-0.6,1.9-0.7,2.8-0.3
			c1.4,0.5,2.1,1.8,2.6,2.8l0.2,0.7c0.7,1.5,1.4,3.1,0.2,3.8C42.4,244.6,41.7,244.8,41,244.8z M37.2,241.7c1.5,1.9,3.9,2.5,5.2,1.7
			c0.3-0.2-0.2-1.4-0.7-2.3l-0.2-0.7c-0.3-0.8-1-1.9-1.9-2.2c-0.6-0.2-1.2-0.1-1.9,0.2c-0.6,0.3-1,0.8-1.1,1.2
			C36.4,240.2,36.7,240.9,37.2,241.7L37.2,241.7z"/>
		<path class="folha-arvore" id="arvore_esquerda23" d="M32.9,240c-1,0-1.8-0.3-2.3-0.9c-0.7-0.8-0.9-1.9-0.7-3.5c0.1-0.5,0.1-1,0.1-1.5c0-1.1,0-2.1,0.6-2.6
			c0.1-0.1,0.3-0.2,0.8-0.2c1.1,0.2,4,2.8,4.7,4.1c0.5,0.9,0.5,2.1-0.2,3C35.1,239.4,34.1,240,32.9,240z M31.2,232.3
			c-0.1,0.3-0.1,1.1-0.1,1.5c0,0.6,0,1.2-0.1,1.8c-0.2,1.4,0,2.2,0.5,2.7c0.3,0.3,0.8,0.6,1.4,0.6c0.8,0,1.4-0.5,1.9-1.1
			c0.3-0.7,0.5-1.4,0.1-1.9C34.4,234.8,32,232.8,31.2,232.3z"/>
		<path class="folha-arvore" id="arvore_esquerda24" d="M45,252.3c-0.7,0-1.4-0.1-2-0.5c-1.9-0.9-2.6-3.1-1.4-5.2c1-2,1.9-3.7,3.2-3.5c0.7,0.1,1.5,1.2,1.9,1.7
			c0.7,0.9,2.1,3.1,1.7,5.1l0,0c-0.2,0.9-0.8,1.5-1.5,2C46.3,252.1,45.6,252.3,45,252.3z M44.6,244c-0.6,0-1.7,2.1-2,3
			c-0.7,1.4-0.7,3,0.9,3.8c0.9,0.5,2,0.5,2.8,0c0.3-0.2,0.9-0.6,1-1.2l0,0C47.9,247.4,45.1,244.3,44.6,244
			C44.7,244,44.6,244,44.6,244z"/>
		<path class="folha-arvore" id="arvore_esquerda25" d="M47.1,243.1c-0.1,0-0.3,0-0.5-0.1c-0.1,0-0.6-0.2-1.1-1.4c-0.8-1.5-1.4-4-0.6-5.8c0.3-0.9,1.1-1.5,2-1.8
			c1-0.3,2.2,0,3.2,0.7c1.7,1.2,1.9,3.5,0.5,5.5C49.3,241.8,48.2,243.1,47.1,243.1z M47.7,235c-0.2,0-0.3,0-0.6,0.1
			c-0.6,0.1-1,0.6-1.2,1.1l0,0c-0.9,2,0.7,5.5,1.1,5.8c0.6,0.1,2-1.8,2.6-2.6c0.9-1.2,1.2-2.9-0.2-3.9C49,235.2,48.3,235,47.7,235z"
			/>
		<path id="arvore_esquerda26" d="M49,278.1h-8.6c-0.8,0-1.2-0.3-1.4-0.7c-0.9-1.2-0.1-3.9,1-7.4c1.2-3.9,2.7-8.7,1.4-11.5c-0.2-0.5-0.7-0.6-1.5-1
			c-1.4-0.6-3.5-1.4-6.3-3.7l-0.5-0.5c-3-2.7-5.2-4.7-5.1-6.1c0-0.5,0.2-0.8,0.6-1c1-0.7,2,0.6,3.4,2c0.8,1,1.8,2.1,2.8,2.9
			c2.7,2.1,6.1,3.8,7,4c0.1-1.2-1.5-3.5-3-5.2c-1.7-2.1-2.7-3.5-2.5-4.5c0.1-0.3,0.3-0.7,0.7-0.9c0.2-0.1,0.7-0.2,1.2-0.1
			c2.3,0.8,5.6,7.4,6.8,9.9c0.8-1.2,2.5-3.5,4.3-4.9c0.1-0.1,7-5.7,8.5-4c0.2,0.2,0.3,0.6,0.2,0.9c-0.1,1.2-2.1,2.9-5.5,5.4
			c-1.4,1-3.5,2.6-4,3.4c1.1-0.2,4.5-1.5,8.5-3.5c2-1,4-2.3,5.7-3.5c2.6-1.8,4-2.8,4.9-1.9c0.2,0.2,0.5,0.6,0.3,1.1
			c-0.5,2-4.8,5.8-9.9,7.8c-2.3,0.9-4.8,1.5-6.8,2c-1.4,0.3-2.8,0.7-3.1,0.9c-0.8,3.1,0.6,7.5,1.7,11.4c1.1,3.5,1.9,6.4,0.9,7.7
			C50.2,277.8,49.6,278.1,49,278.1z M29.2,247.3L29.2,247.3c-0.1,0.1-0.1,0.1-0.1,0.2c-0.1,1,3,3.5,4.8,5.1l0.5,0.5
			c2.6,2.2,4.6,3,5.9,3.5c1.1,0.5,1.9,0.7,2.2,1.5c1.4,3.1-0.1,8-1.4,12.3c-0.9,2.8-1.7,5.7-1.1,6.4c0,0,0.1,0.2,0.6,0.2h8.5
			c0.6,0,0.7-0.1,0.8-0.3c0.7-0.9-0.2-3.9-1.1-6.7c-1.2-4-2.7-8.6-1.7-12.1c0.2-0.7,1.1-0.9,3.9-1.7c1.9-0.5,4.3-1.1,6.7-2
			c5.9-2.3,9.5-6.4,9.2-7.1c-0.5,0-2.1,1.1-3.5,2.1c-1.7,1.1-3.7,2.6-5.8,3.5c-4,1.9-8.9,4-9.7,3.5c-0.2-0.2-0.5-0.5-0.5-0.8
			c0-1,1.5-2.2,4.6-4.5c1.8-1.4,5.1-3.8,5-4.6c-0.7-0.2-4.7,2.2-7,4.1c-2.3,1.9-4.6,5.5-4.6,5.6l-0.6,0.9l-0.5-1
			c-1.5-3.7-4.8-9.6-6.6-10.3c-0.2-0.1-0.3,0-0.3,0c-0.1,0-0.1,0.1-0.1,0.1c-0.1,0.6,1.2,2.3,2.2,3.5c1.9,2.3,3.8,4.8,3.1,6.6
			c-0.1,0.2-0.2,0.3-0.6,0.5c-1.4,0.3-6-2.6-8.3-4.3c-1.1-0.9-2.1-2-3-3C30.4,248.4,29.5,247.3,29.2,247.3z M47.9,258.3L47.9,258.3
			L47.9,258.3z"/>
		<path class="folha-arvore" id="arvore_esquerda27" d="M66.4,260.6c-0.6,0-1.1-0.2-1.7-0.3c-0.8-0.2-3.5-1.4-4.5-3.4c-0.6-1.2-0.6-2.3-0.1-3.1c0.2-0.6,0.9-1.1,2-1.4
			c2.2-0.3,4.5,1.2,4.8,3.4c0.1,0.6,0.2,1,0.3,1.5c0.3,1.4,0.7,2.6-0.3,3.1C66.9,260.6,66.7,260.6,66.4,260.6z M62.9,253.4
			c-0.1,0-0.3,0-0.5,0c-0.6,0.1-1,0.3-1.2,0.8c-0.3,0.6-0.2,1.4,0.1,2.2l0,0c0.9,2,4.6,3.1,5.2,3c0.2-0.1-0.1-1.1-0.2-1.9
			c-0.1-0.6-0.2-1-0.3-1.5C65.7,254.5,64.3,253.4,62.9,253.4z"/>
		<path class="folha-arvore" id="arvore_esquerda28" d="M58,264.6c-0.5-0.1-1.1-0.5-1.5-0.8c-0.7-0.5-3-2.2-3.4-4.5c-0.2-1.4,0.1-2.3,0.8-3.1c0.5-0.5,1.1-0.9,2.3-0.7
			c2.2,0.2,3.9,2.3,3.7,4.6c-0.1,0.6-0.1,1.1-0.1,1.5c0,1.4-0.1,2.7-1.2,2.9C58.3,264.6,58.2,264.6,58,264.6z M56.5,256.6
			c-0.1,0-0.3-0.1-0.5-0.1c-0.7-0.1-1.1,0.1-1.4,0.5c-0.5,0.5-0.6,1.2-0.5,2.1l0,0c0.3,2.1,3.5,4.3,4.3,4.3c0.2,0,0.2-1.1,0.2-1.9
			c0-0.6,0-1.1,0.1-1.7C58.9,258.4,57.9,257.1,56.5,256.6z"/>
  
  <path id="cristo" d="M202.6,283.8H69.1v-6.4h1.1c2.1,0,3.9-1.4,4.3-3.1c0.6-2.2,1.8-3.1,3-3.9l0.3-0.2c1.8-1.2,3.8-2.6,4.5-8.1
		c0.2-2.5,2.5-3.9,4.3-5.4l0.2-0.1c1.7-1.1,3.1-2.1,3.1-3.5c0.2-8.3,9-9.7,12.8-10.4c0.3-0.1,0.7-0.1,1-0.2c0.5-0.1,0.7-0.1,0.9-0.2
		c0.3-2.5,0.8-5.4,1.2-8.5l0.2-1.4c0.9-5.9,2.1-13.4,2.2-18.4c0-0.2,0-0.5,0-0.6h-0.6c-1.1,0.1-2,0.1-2.6-0.3
		c-0.6-0.5-0.8-1.4-0.9-2.6v-0.9c0-0.5,0-0.8,0.1-1.1c0-0.3,0-0.7,0-1.1c0-0.9,0-1.7,0.1-2.5c0-0.8,0-1.5,0-2.5
		c0-3.8,0-7.5-0.1-11.3l-0.1-4.1l0.1-0.1c0.7-1.2,0-2.3-0.6-3.5l-0.1-0.1c-0.2-0.3-0.5-0.8-0.7-1.2c-0.5-1.4-0.8-2.6-0.8-3.5
		c0.1-0.6,0.1-0.9,0.1-1.4s0.1-0.9,0.1-1.4c0.1-1.2,0.2-2.5,0.2-3.5c0-2.5,0-5-0.1-7.6c0-1,0-2-0.1-3.1c0-1,0-2.1,0-3.1v-12.8
		c0-3.9,0.1-10.9,0.6-15.3c0.1-1.4,0.1-2.9,0.1-4.3c0-0.5,0-0.8,0-1.2c0-0.7,0-1.2-0.1-1.7c-0.1-1.1-0.2-2.1-0.1-3.2
		c0.2-2.5,0.2-4.9,0.2-7.2c0.1-1.2,0.1-2.5,0.1-3.7c0.1-4.7,0.2-9.6,0.5-14.4c0-0.5,0-0.5-0.7-0.7c-0.5-0.1-0.9-0.2-1.4-0.3
		c-0.5-0.1-0.9-0.2-1.4-0.3c-2.5-0.7-5.5-1.4-8.1-2.6c-3.5-1.4-6.6-2.3-9.7-2.7c-3.9-0.5-7.1-0.7-9.9-0.8l-0.9-0.1
		C68.6,87.1,66,87,63.6,87c-0.7,0-1.4,0-2.1-0.1c-0.7,0-1.4,0-2,0H58c-2.8,0-6.8-0.8-6.8-0.8c-1.9-1-3.2-2.6-4.3-4.3
		c-0.1-0.2-0.3-0.3-0.5-0.6c-0.2-0.2-0.3-0.5-0.6-0.7c-0.5-0.5-2.5-3.4-2.8-4c-0.2-0.3-0.5-0.7-0.7-1.1c-0.1-0.2-0.2-0.5-0.3-0.6
		c-0.1-0.2-0.2-0.5-0.3-0.7c-0.1-0.3-0.3-0.7-0.5-0.9c-0.2-0.3-0.3-0.7-0.6-1c-1.4-2.3-2.7-5-2.8-7.9c-0.1-0.3-0.5-0.9-0.7-1.1
		C35.9,63,34.5,63,33.3,63H33c-0.1,0-0.2,0-0.6,0.1l-0.5,0.1c-0.2,0.1-0.6,0.2-0.9,0.2c-4.9,0-10,0-14.9-1.5c-1.7-0.6-3.5-1-5.5-1.4
		c-0.8-0.1-1.7-0.3-2.8-0.6c-1-0.2-1.2-0.6-1.4-0.9c-0.2-0.8-0.8-0.9-1.8-1h0.6c-0.1,0-0.1,0-0.2-0.1c-0.3-0.1-0.8-0.2-1-0.6
		c-0.2-0.2-0.3-0.8-0.2-1.4c0-0.2,0-0.2,0-0.3c-0.1-0.1-0.2-0.1-0.5-0.1c-0.5,0-0.9-0.2-1.1-0.7C2,54.3,2,53.9,2,53.6V54
		c0.1-0.6,0.2-1.1,0.6-1.4c0.2-0.2,0.6-0.2,1-0.2c0.5,0.1,0.6,0,0.6-0.5c0.2-1.4,1.4-1.4,2-1.4c0.5,0,0.8,0,1.1,0.1
		c0.3,0,0.7,0,1.1,0c1.4,0,2.9,0.1,4.3,0.2H13v-0.2l0.1-0.1c0,0,0-0.1,0-0.2c0.1-0.5,0.2-1.2,0.8-1.8c0.2-0.2,0.8-0.3,1.4-0.1h0.1
		c0.2,0.1,0.8,0,1.2,0s1,0,1.5-0.1c0.8-0.1,1.4-0.1,2.3,0.1c0.2,0,0.7,0,1.1,0.1c0.3,0.1,1.1,0.2,2,0.2c1.7,0,3.1,0.3,4.7,1l0.3,0.2
		c0.3,0.1,0.6,0.2,0.8,0.3c0.8,0.2,1.4,0.5,2,0.9c1.1,0.6,2,1.2,2.8,1.8c0.5,0.3,1.7,0.8,2.7,0.7c0.1,0,0.1,0,0.2-0.1
		c0.1,0,0.3-0.1,0.5-0.2c0.8-1,1.8-0.9,2.5-0.8h0.1c0.7,0.1,1.4,0.2,2.1,0.5c0.3,0.1,0.8,0.2,1.1,0.2c1.5,0.5,3.4,0.9,5.2,1.1
		c2.7,0.3,5.1,0.7,7.6,0.2c2.6-0.5,5.1-0.6,7.6-0.7h0.1c0.2,0,0.3,0,0.6,0s0.5-0.1,0.7-0.1c0.7-0.1,1.2-0.1,1.9-0.1
		c1.1,0,2.2,0.1,3.2,0.2c0.6,0,1.1,0.1,1.7,0.1l1.4,0.2c0.3,0,1,0,1.4,0.6c0.3,0.5,0.7,0.5,1.1,0.3c3.4-0.3,6.8-1.4,9.7-2.3
		c0.5-0.1,0.9-0.2,1.4-0.3c0.3-0.1,0.7-0.1,1.1-0.2c0.5-0.1,0.8-0.1,1.1-0.2c0.3-0.1,0.6-0.1,0.8-0.2c0.2,0,0.5-0.1,0.7-0.1
		s0.5,0,0.6-0.1c1.1-0.1,2.1-0.2,2.8-1.1c0.2-0.2,0.5-0.5,0.9-0.5c0.3-0.1,0.8-0.2,1.2-0.5c0.5-0.1,0.8-0.2,1.2-0.5
		c1.5-0.5,3.1-1,4.7-1.7c1.9-0.9,4.1-1.4,6.3-1.8c0.3-0.1,0.7-0.1,1-0.2c0.3-0.1,0.7-0.2,1-0.2h2.2c1.7-0.1,3.1-0.3,4.6-0.5
		c0.9-0.1,1.8-0.2,2.7-0.3c0.3,0,0.6-0.1,0.9-0.2c0.5-0.1,1-0.2,1.4-0.2c0.3-0.1,1-0.5,1.4-1c0.3-0.6,0.5-1,0.3-1.4
		c-0.7-1.5-0.9-3.1-0.3-4.3c0.5-0.9,0.3-1.9,0.2-3l-0.1-1.1c-0.2-1.5-0.2-3.2-0.2-4.7v-0.9c0-0.2,0-0.5,0.1-0.7c0-0.2,0-0.3,0-0.5
		V26c0.1-0.2,0.1-0.7,0.1-0.9v-3.8c0-0.8,0-1.5,0-2.3c0-1.4,0-3,0-4.6c0-2,0.3-4.5,2.5-6l0.2-0.2l0,0c-0.2-0.7,0-0.9,0.1-1
		s0.3-0.2,0.5-0.2c0,0,0.1,0,0.1-0.1l0.1-0.1h0.1h0.1c2.3-1.5,4.9-2,7.1-2.2c4.8-0.6,8.3,0.9,10.6,4.5c2,3.1,3.2,6.4,3.8,10.3
		c0.2,1.4,0.3,2.8,0.5,4.3V24c0.1,1.2,0.2,2.6,0.5,3.9c0.1,1.2,0.3,2.5,0.7,3.8c0.1,0.7,0.2,1.4,0.3,2.1c0.1,0.6,0.2,1.2,0.3,1.8
		c0.1,0.8,0.3,1.5,0.5,2.5l0.1,0.7c0.1,0.9,0.2,2,0,2.9c-0.1,0.7-0.1,0.7,0.5,0.8c0.3,0.1,0.8,0.2,1.4,0.2s1.2,0.1,1.8,0.2
		c0.2,0,0.5,0.1,0.8,0.1h0.2c1,0.2,1.9,0.3,2.9,0.3c0.7-0.1,1.4,0,2,0.1c0.2,0,0.3,0.1,0.6,0.1h0.3c1,0.2,1.9,0.2,2.6,0.1
		c0.6-0.1,1-0.1,1.4-0.1c4,0.2,7.9,1.1,11.6,2c1,0.3,2,0.6,3.1,0.8c2.1,0.6,4.3,0.8,6.6,1h0.2h2.3c0.8-0.1,1.5-0.1,2.5,0
		c1.5,0.1,3.5,0.3,4.7,1.8c0.9,1,2.1,1.1,3.4,1.2h0.2c2.7,0.3,5.2,0.5,7.8,0.6h0.2c1.1,0,2.2,0,3.4,0.1c0.7,0,1.4,0.1,1.9,0.1
		c0.7,0,1.4,0.1,2,0.1h0.3c1.4,0,2.9,0.1,4.3,0.2c1.5,0.1,3.1,0.2,4.6,0.2c0.3,0,0.7-0.1,1.1-0.1l0.7-0.1c0.5-0.1,0.9-0.2,1.4-0.2
		c3.1,0.1,6.1-0.3,9.4-1.4c0.5-0.1,1.1,0,1.5,0.1c0.3,0.1,0.6,0.3,0.6,0.7v0.1h0.1l0.1,0.1c0,0,0,0,0.1,0h0.2h0.6
		c1.2,0,1.9-0.1,2.2-1l0.1-0.1c0,0,0.2-0.2,0.5-0.2c0.2-0.1,0.5-0.2,0.6-0.3c0.3-0.2,0.8-0.3,1.1-0.6c0.6-0.2,1.1-0.6,1.7-0.8
		c0.9-0.5,1.8-0.9,2.7-1.2c0.7-0.2,1.4-0.2,2.1-0.2h3.8c0.5,0,0.9,0,1.4,0c1-0.1,2-0.1,3-0.1c0.6,0,1.1-0.1,1.7-0.1s1.1,0.2,1.5,0.6
		c0.5,0.7,0.5,1.2,0.2,1.9c0,0.1,0,0.2-0.1,0.2V49l-0.6,0l0,0h0.5l1.9,0.1c1.5,0,3.1,0.1,4.7,0.2h0.3c0.8,0.1,1.8,0.2,2,1.4l0,0
		c0,0,0.6,0.1,0.7,0.2c0.6,0.1,1.1,0.3,1.4,0.9c0.5,1.2-0.9,2.1-1.4,2.5l-0.1,0.1c0.1,0.3,0.2,0.8,0,1.2c-0.2,0.6-0.7,0.7-1.1,0.7
		c0,0-2,0.3-2.2,0.7l-0.1,0.1c-0.3,0.5-0.7,0.9-1.4,1l-0.9,0.3c-0.6,0.2-1.1,0.3-1.8,0.5l-1.7,0.3c-1.8,0.3-3.5,0.7-5.4,1l-0.8,0.1
		c-3.1,0.5-8.5,0.7-11.8,0.5c-0.9-0.1-2.7-0.1-4.9,0.1c-1.8,0.2-2.6,0.8-2.9,2c-0.2,0.7-0.5,1.2-0.9,1.9l-0.2,0.2
		c0,0.1,0,0.2-0.1,0.3c-0.1,0.6-0.5,0.9-0.7,1.2c-0.7,1-1.4,2.1-2,3.2l-1,1.7c-0.5,0.9-1.2,2.1-2.2,3.5c-0.3,0.5-1.2,1.8-2.1,3
		c-1,1.4-1.9,2.8-2.2,3.1l-0.9,0.7c-0.8,0.9-1.7,1.9-3,2.6c-3.2,1.7-6.7,2.2-10.3,1.5c-1.5-0.3-3-0.5-4.5-0.6
		c-3.2-0.2-6.6-0.3-9.5-0.5c-1.2-0.1-3.2,0.2-4.6,0.6c-1.7,0.6-3,1-4.3,1.5L189,87c-0.7,0.2-1.2,0.6-1.9,0.9
		c-0.5,0.2-0.9,0.3-1.2,0.6c-0.5,0.2-0.9,0.5-1.2,0.6c-1.5,0.7-3.1,1.2-4.7,1.7l-1.2,0.5l-2.3,0.9c-0.2,0.1-0.8,0.2-1.2,0.2
		c-0.2,0-0.5,0.1-0.5,0.2c-0.1,0.1-0.2,0.5-0.2,0.6V94c0,2.7,0,5.4,0.1,8.1c0,0.8,0.1,1.5,0.2,2.5c0,0.5,0.1,0.8,0.1,1.2l0.3,2.9
		c0.1,1.9,0.2,3.8,0.3,5.8c0,1.4,0.1,3,0.2,4.5c0.1,0.9,0.1,1.9,0.2,2.9c0.1,0.9,0.1,1.7,0.2,2.5c0,0.8,0.1,1.7,0.2,2.5
		c0.2,1.4,0.3,2.9,0.5,4.3c0.1,0.5,0,1,0,1.5c0,0.2,0,0.5,0,0.7c0,0.3,0,0.7,0,0.9c0,0.6,0,1,0,1.4v0.7c0.1,1,0.1,1.7-0.3,2.1
		c-0.6,0.3-1.2,0.5-2.8,0.5h-0.1v0.2c0.1,0.6,0.2,1.2,0.3,1.8c0.2,1.1,0.3,2,0.6,3c0.1,0.2,0.1,0.6,0,0.8s-0.2,0.5-0.5,0.6
		c-0.2,0.2-0.6,0.5-0.9,0.7l-0.3,0.2c-0.3,0.2-0.7,0.5-0.9,0.8c-0.3,0.5-0.5,1.1-0.6,2c-0.1,0.6,0,1.1,0.1,1.7
		c0,0.1,0.1,0.3,0.1,0.5c0.9,4,1.2,8.4,1,13.7c-0.1,3.1-0.7,5.4-2,7.4c-0.3,0.6-1,3.5-1,4c0,0.2,0,0.6,0,0.8c0,0.3,0.1,0.6,0.1,0.9
		c0,0.2,0,0.6,0,0.8c0,0.3,0.1,0.6,0.1,0.9c0,0.8,0.1,1.5,0.2,2.3c0.1,0.8,0.2,1.7,0.2,2.5l0.2,2.8v3l-0.1,0.9
		c-0.2,0.9-0.3,1.8-0.3,2.7c0,2.8,0.1,5.7,0.3,8.6c0.1,1,0.2,2.1,0.3,3.1c0.1,0.9,0.1,1.9,0.2,2.9c0.1,1,0.1,1.9,0.2,2.9
		c0.2,2.1,0.3,4.3,0.5,6.4c0.2,5.4,0.3,10.8,0.5,16.1l0.1,4.3l4.9,8.5c4.9,3,9.9,6.7,10.3,11.3c0.9,9.5,2.7,14.9,5.4,16.4
		c3.7,2.1,4.8,3.4,5.4,3.9l0.3,0.3h3.9v5.3L202.6,283.8L202.6,283.8z M70.2,282.7h131.3v-3.1h-3.7c0,0-1.9-2.3-5.4-4.3
		c-3.1-1.8-5-7.2-5.9-17.3c-0.3-4-5.1-7.5-9.8-10.4l-0.3-0.3l-5.1-8.8l-0.1-4.6c-0.1-5.2-0.2-10.7-0.5-16.1
		c-0.1-2.1-0.2-4.3-0.5-6.4c-0.1-1-0.1-1.9-0.2-2.9c-0.1-1-0.2-2-0.2-2.9c-0.1-1-0.2-2-0.3-3.1c-0.2-2.9-0.3-5.8-0.3-8.7
		c0-1,0.1-2,0.3-2.9l0.1-0.7v-2.9l-0.2-2.8c0-0.9-0.1-1.7-0.2-2.5c-0.1-0.8-0.2-1.7-0.2-2.5c0-0.3,0-0.6,0-0.8
		c0-0.3-0.1-0.6-0.1-0.9c0-0.2,0-0.6,0-0.8c0-0.3-0.1-0.6-0.1-0.9c0-0.7,0.7-3.9,1.2-4.7c1.1-1.8,1.7-3.8,1.8-6.7
		c0.2-5.2-0.1-9.6-1-13.5c0-0.2-0.1-0.3-0.1-0.5c-0.1-0.6-0.2-1.2-0.1-2c0.1-1,0.3-1.8,0.8-2.5c0.3-0.5,0.8-0.8,1.2-1l0.3-0.2
		c0.3-0.2,0.7-0.5,0.8-0.7l0.1-0.1c0,0,0,0,0-0.1V144l0,0c-0.1-1-0.3-2-0.6-3c-0.1-0.7-0.2-1.2-0.3-1.9V139l-0.5-1.1l1.2-0.2h0.5
		c1.1,0,1.8-0.1,2-0.2c0,0,0-0.6-0.1-1.1v-0.8c-0.1-0.5,0-1,0-1.5c0-0.2,0-0.6,0-0.9c0-0.2,0-0.5,0-0.7c0-0.5,0-0.9,0-1.4
		c-0.1-1.4-0.2-2.9-0.5-4.3c-0.1-0.8-0.2-1.7-0.2-2.6c0-0.8-0.1-1.5-0.2-2.5c-0.1-1-0.2-1.9-0.2-2.9c-0.1-1.4-0.2-3-0.2-4.5
		c-0.1-2-0.2-3.9-0.3-5.7l-0.3-2.9c0-0.5-0.1-0.8-0.1-1.2c-0.1-0.8-0.2-1.7-0.2-2.6c-0.1-2.8-0.1-5.5-0.1-8.1V93
		c0-0.6,0.2-1.1,0.5-1.4s0.8-0.5,1.4-0.5c0.2,0,0.7-0.1,0.8-0.1l3.5-1.4c1.5-0.6,3.1-1.1,4.6-1.7c0.3-0.1,0.8-0.3,1.2-0.6
		c0.5-0.2,0.9-0.5,1.2-0.6c0.6-0.3,1.2-0.7,1.9-0.9l0.6-0.2c1.4-0.6,2.7-1,4.3-1.5c1.4-0.3,3.5-0.7,4.9-0.6c2.9,0.1,6.3,0.2,9.5,0.5
		c1.4,0.1,2.9,0.2,4.6,0.6c3.4,0.6,6.6,0,9.6-1.5c1.1-0.6,1.9-1.4,2.7-2.2l0.5-0.5c0.2-0.3,1.2-1.7,2.2-3c0.9-1.2,1.8-2.5,2.1-3
		c1-1.4,1.7-2.6,2.2-3.5l1-1.7c0.7-1.1,1.4-2.2,2-3.2c0.2-0.3,0.5-0.6,0.5-0.9V65c0-0.1,0-0.1,0.1-0.2c0-0.1,0.1-0.3,0.2-0.6
		l0.1-0.1c0.2-0.5,0.5-0.9,0.7-1.5c0.6-2.1,2.3-2.7,3.8-2.8c1.8-0.2,3.5-0.2,5.1-0.1c3.4,0.2,8.5,0,11.6-0.5l0.8-0.1
		c1.8-0.3,3.5-0.6,5.4-1l1.7-0.3c0.6-0.1,1.1-0.2,1.5-0.5l1-0.3c0.3-0.1,0.5-0.2,0.8-0.7c0.6-0.8,1.5-1.1,2.1-1.2
		c0.1,0,0.5-0.1,0.5-0.1h0.5c0.1,0,0.3-0.1,0.3-0.1c0-0.1,0-0.1,0-0.3l-0.1-0.2v-0.7l0.6-0.6c0.8-0.6,1.1-0.9,1-1.2
		c-0.1-0.1-0.5-0.2-0.7-0.2h-0.1c-0.1,0-0.1,0-0.2-0.1c-0.1,0-0.2-0.1-0.3-0.1c-0.1,0-0.9-0.9-0.9-0.9c-0.1-0.3-0.1-0.5-1-0.6h-0.2
		c-1.5-0.1-3.1-0.2-4.7-0.2l-1.9-0.1h-0.6l-1.4-0.2l0.5-1.2c0-0.1,0-0.2,0.1-0.3v-0.1l0.1-0.1c0.1-0.3,0.1-0.6-0.1-0.8
		c0,0-0.2-0.2-0.7-0.2c-0.6,0-1.1,0-1.5,0c-1,0-1.9,0-2.9,0.1c-0.5,0-0.9,0.1-1.4,0.1H251c-0.7,0-1.2,0-1.7,0.2
		c-0.9,0.3-1.7,0.8-2.6,1.2c-0.6,0.2-1.1,0.6-1.5,0.8c-0.3,0.2-0.7,0.3-1.1,0.6c-0.2,0.1-0.5,0.2-0.7,0.3h-0.1
		c-0.8,1.4-2.3,1.4-3.2,1.4h-0.5c-0.2,0.1-0.6,0.1-0.8,0h-0.2l-0.2-0.2c-0.1-0.1-0.3-0.3-0.3-0.6c-0.2,0-0.6-0.1-0.7,0
		c-3.4,1-6.4,1.4-9.7,1.4c-0.5,0-0.8,0.1-1.2,0.1l-0.7,0.1c-0.5,0.1-0.9,0.1-1.4,0.1c-1.5-0.1-3.1-0.1-4.7-0.2
		c-1.4-0.1-2.9-0.1-4.3-0.2h-0.3c-0.7-0.1-1.4-0.1-2-0.1c-0.7,0-1.4-0.1-2-0.1c-1.1-0.1-2.2-0.1-3.4-0.1h-0.2
		c-2.6-0.1-5.1-0.2-7.8-0.6h-0.1c-1.5-0.1-3-0.5-4.1-1.7c-1-1.1-2.5-1.2-4-1.4c-0.8-0.1-1.4-0.1-2.2,0h-2.5h-0.2
		c-2.2-0.2-4.5-0.5-6.7-1c-1.1-0.2-2.1-0.5-3.1-0.8c-3.7-0.9-7.5-1.8-11.4-2c-0.5,0-0.8,0-1.1,0.1c-1.1,0.2-2,0.1-3,0H161
		c-0.2,0-0.3,0-0.6-0.1c-0.6-0.1-1.2-0.2-1.8-0.1c-1.1,0.1-2.1-0.1-3.2-0.3h-0.2c-0.2,0-0.5-0.1-0.8-0.1c-0.6-0.1-1.1-0.2-1.5-0.2
		c-0.8,0-1.2-0.1-1.7-0.2c-0.9-0.3-1.4-0.8-1.2-2.1c0.1-0.8,0-1.7-0.1-2.6l-0.1-0.7c-0.1-0.7-0.2-1.5-0.5-2.2
		c-0.1-0.7-0.2-1.2-0.3-1.9s-0.2-1.4-0.3-2.1c-0.2-1.2-0.5-2.6-0.7-3.8c-0.2-1.4-0.3-2.7-0.5-3.9v0c-0.1-1.4-0.2-2.9-0.5-4.3
		c-0.6-3.5-1.7-6.8-3.5-9.8c-2.1-3.2-5-4.5-9.5-4c-2.1,0.2-3.5,0.6-5.6,2c-0.1,0.2-0.5,0.2-0.7,0.2l0,0l0.2,0.6l-0.8,0.8
		c-1.8,1.4-2.1,3.4-2.1,5.1c-0.1,1.5,0,3,0,4.6c0,0.8,0,1.5,0,2.3v3.8c0,0.3,0,0.8-0.1,1.2c0,0.2,0,0.3-0.1,0.6c0,0.2,0,0.3,0,0.5
		v0.9c0,1.4,0,3,0.2,4.5l0.1,1.2c0.1,1.1,0.2,2.3-0.3,3.5c-0.3,0.9-0.2,2,0.3,3.4c0.3,0.8,0.2,1.7-0.3,2.5c-0.6,0.9-2.6,1.4-3.2,1.5
		c-0.5,0-0.9,0.1-1.1,0.2c-0.3,0.1-0.8,0.2-1.2,0.2c-0.8,0.1-1.7,0.2-2.6,0.3c-1.4,0.2-2.9,0.3-4.7,0.5h-2.1c-0.2,0-0.6,0.1-0.9,0.2
		c-0.3,0.1-0.7,0.2-1,0.2c-2,0.5-4.1,0.9-6,1.8c-1.5,0.7-3.2,1.2-4.8,1.7c-0.5,0.1-0.8,0.3-1.2,0.5c-0.5,0.1-0.8,0.2-1.2,0.5h-0.3
		c-1,1.4-2.3,1.4-3.5,1.5c-0.1,0-0.5,0.1-0.7,0.1s-0.5,0-0.6,0.1c-0.2,0-0.5,0.1-0.8,0.2c-0.3,0.1-0.8,0.2-1.2,0.2
		c-0.3,0.1-0.8,0.2-1.1,0.2c-0.5,0.1-0.9,0.2-1.4,0.3c-3,1-6.4,2-9.9,2.3c-0.6,0.1-1.4,0.1-2.1-0.9c-0.1,0-0.3,0-0.5,0l-1.5-0.5
		c-0.6,0-1.1-0.1-1.7-0.1c-1.1-0.1-2.1-0.2-3.1-0.2c-0.7,0-1.2,0-1.8,0.1c-0.2,0-0.5,0-0.6,0.1c-0.2,0-0.5,0.1-0.7,0.1h-0.1
		c-2.5,0.1-4.9,0.2-7.4,0.7c-2.6,0.5-5,0.1-7.9-0.2c-1.9-0.2-3.7-0.7-5.4-1.1c-0.3-0.1-0.8-0.2-1.1-0.2c-0.7-0.1-1.4-0.3-2-0.5h-0.2
		c-0.7-0.1-1-0.1-1.4,0.3c-0.3,0.3-0.7,0.5-0.9,0.6c-0.1,0-0.1,0-0.2,0.1h-0.2c-1.2,0.1-2.9-0.3-3.5-0.9c-0.8-0.6-1.7-1.1-2.7-1.8
		c-0.6-0.3-1.1-0.6-1.8-0.8c-0.3-0.1-0.7-0.2-1-0.5l0.1-0.1c-1.4-0.7-2.8-0.9-4.3-0.9c-0.9,0-1.8-0.1-2.2-0.2
		c-0.5-0.1-0.7-0.1-1-0.1C19.2,49,18.7,49,18,49c-0.6,0.1-1.1,0.1-1.5,0.1c-0.6,0-1,0.2-1.8-0.1c-0.2,0-0.3,0-0.3,0
		c-0.2,0.3-0.3,0.8-0.3,1.1c0,0.1,0,0.2-0.1,0.3l0.2,1.1h-1.7c-1.4-0.1-2.9-0.2-4.3-0.2c-0.6,0-0.9,0-1.2-0.1c-0.3,0-0.7,0-1.1,0
		c-0.8,0-0.9,0.1-0.9,0.6c-0.2,1-0.8,1.5-1.9,1.4c-0.1,0-0.2,0-0.2,0S3,53.4,3,53.9v0.2v0.1c0,0.1,0,0.3,0.1,0.5c0,0,0.1,0,0.2,0
		c0.6,0,0.9,0.1,1.4,0.5l0.1,0.1c0.1,0.2,0.3,0.7,0.1,1.2c0,0.1,0,0.2,0,0.3C5,56.9,5.1,56.9,5.4,57c0.1,0,0.2,0,0.2,0.1
		c1,0.1,2.1,0.2,2.7,1.8c0.1,0,0.2,0.1,0.5,0.1c1.1,0.3,2,0.5,2.8,0.6c2,0.3,3.9,0.8,5.7,1.4c4.7,1.5,9.7,1.5,14.6,1.5
		c0.1,0,0.2,0,0.6-0.1l0.5-0.1c0.2-0.1,0.6-0.2,0.9-0.2l0,0c1.4,0,2.7,0,4,0.2l0,0H38l0.1,0.1c0.7,0.3,1.1,1.4,1.4,1.9v0.1
		c0.1,2.8,1.4,5.2,2.7,7.6c0.2,0.3,0.3,0.7,0.6,1c0.2,0.3,0.3,0.7,0.6,1c0.1,0.2,0.2,0.5,0.3,0.6c0.1,0.2,0.2,0.5,0.3,0.7
		c0.2,0.5,0.5,0.8,0.7,1l0.1,0.1c0.1,0.3,2.1,3.1,2.7,3.8c0.2,0.2,0.3,0.5,0.5,0.6c0.2,0.2,0.3,0.5,0.6,0.7c1,1.4,2.2,2.9,3.8,3.8
		h0.1c1.8,0.3,3.9,0.6,6.6,0.6h1.5c0.7,0,1.4,0,2.1,0.1c0.7,0,1.4,0,2,0c2.5,0,5,0.1,7.8,0.2L73,86c2.8,0.2,6,0.5,9.9,0.8
		c3.1,0.3,6.4,1.2,9.9,2.7c2.7,1.1,5.5,1.9,7.9,2.6c0.5,0.1,0.9,0.2,1.4,0.3s0.8,0.2,1.2,0.3h0.1c0.7,0.2,1.4,0.5,1.4,1.8
		c-0.2,4.8-0.3,9.7-0.5,14.4c0,1.2,0,2.5-0.1,3.7c0,2.3,0,4.9-0.2,7.4c-0.1,1,0,1.9,0.1,2.9c0.1,0.6,0.1,1.1,0.1,1.9
		c0,0.3,0,0.8,0,1.1c0,1.4,0,2.8-0.1,4.3c-0.5,4.3-0.6,11.3-0.6,15V158c0,1,0,2,0,3s0,2.1,0,3.1c0.1,2.6,0.1,5.1,0.1,7.6
		c0,1.2-0.1,2.5-0.2,3.7c-0.1,0.5-0.1,0.9-0.1,1.4s-0.1,0.9-0.1,1.4c0,0.9,0.2,1.9,0.7,3.1c0.2,0.3,0.5,0.8,0.6,1.1l0.1,0.1
		c0.7,1.2,1.4,2.7,0.7,4.3l0.1,3.9c0.1,3.8,0.1,7.5,0.1,11.3c0,0.9,0,1.7-0.1,2.5c0,0.8,0,1.5,0,2.5c0,0.5,0,0.8-0.1,1.1
		c0,0.3,0,0.7,0,1.1v0.9c0.1,1,0.2,1.5,0.5,1.8c0.2,0.2,0.8,0.2,1.8,0.1h0.1l1.4,0.5c0.2,0.2,0.2,0.6,0.2,1.2
		c-0.1,5.1-1.4,12.6-2.2,18.6l-0.2,1.4c-0.5,3.1-0.9,6-1.2,8.4v0.7L105,243c-0.2,0.1-0.6,0.1-1.1,0.2c-0.3,0.1-0.6,0.1-1,0.2
		c-3.8,0.7-11.7,2-11.9,9.2c0,1.9-1.8,3.1-3.5,4.3L87,257c-1.8,1.2-3.7,2.6-3.9,4.6c-0.8,6.1-3.1,7.7-4.9,8.9l-0.3,0.2
		c-1.1,0.8-2.1,1.5-2.6,3.4c-0.7,2.3-2.9,4-5.5,4h0.4V282.7z M8,58.9L8,58.9L8,58.9z M73.5,55.1L73.5,55.1L73.5,55.1z M126.9,6.8
		C126.9,6.9,126.9,6.9,126.9,6.8C126.9,6.9,126.9,6.9,126.9,6.8z"/>

</g>
</svg>
